<?xml version="1.0" standalone="no"?> 
<!DOCTYPE svg PUBLIC "-//W3C//DTD SVG 1.1//EN" "http://www.w3.org/Graphics/SVG/1.1/DTD/svg11.dtd" >
<svg xmlns="http://www.w3.org/2000/svg">
<defs>
  <font id="ert-icons" horiz-adv-x="64">
    <font-face font-family="ert-icons"
      units-per-em="64" ascent="64"
      descent="0" />
    <missing-glyph horiz-adv-x="0" />
    <glyph glyph-name="address"
      unicode="&#xE00A;"
      horiz-adv-x="64" d="M30.1 30.1H33.9V0H30.1V30.1zM52.7 64L11.3 64L22.6 48.9L11.3 33.9L52.7 33.9L41.4 48.9z" />
    <glyph glyph-name="agenda"
      unicode="&#xE010;"
      horiz-adv-x="64" d="M0 0V64L7.54 64V56.48H22.54V64H41.41V56.48H56.41V64H64L64 0.05zM60.22 52.71H3.78V3.8H60.22zM52.69 33.9H11.31V45.19H52.69zM52.69 22.61H11.31V30.14H52.69zM52.69 11.32H11.31V18.85H52.69zM45.17 64H52.69V60.24H45.17zM11.31 64H18.83V60.24H11.31z" />
    <glyph glyph-name="alert-danger"
      unicode="&#xE01A;"
      horiz-adv-x="64" d="M63.55 7L33.65 59.2C33.45 59.5 33.15 59.8 32.85 60C31.85 60.6 30.65 60.2 30.05 59.2L0.15 6.8C-0.25 6.2 -0.25 5.4 0.15 4.7C0.55 4.1 1.15 3.7 1.95 3.7H61.85C62.95 3.7 63.85 4.7 63.85 5.8C63.85 6.2 63.75 6.7 63.55 7zM33.95 10.5H30.15V18H33.95V10.5zM33.95 22.8H30.15L26.35 41.6H37.65L33.95 22.8z" />
    <glyph glyph-name="alert-info"
      unicode="&#xE020;"
      horiz-adv-x="64" d="M32 64C14.3 64 0 49.7 0 32S14.3 0 32 0S64 14.3 64 32S49.7 64 32 64zM27.5 54.3H36.6V45.2H27.5V54.3zM42.9 9.7H21.1V19.1H27.4V30.5H21.1V39.6H27.4H30.2H36.6V19.1H42.9V9.7z" />
    <glyph glyph-name="alert-success"
      unicode="&#xE02A;"
      horiz-adv-x="64" d="M54.9 57.1L22.9 25.1L9.1 38.8L0 29.7L22.9 6.9L64 48z" />
    <glyph glyph-name="alert-warning"
      unicode="&#xE030;"
      horiz-adv-x="64" d="M32 64C14.3 64 0 49.7 0 32S14.3 0 32 0S64 14.3 64 32S49.7 64 32 64zM32 2.9C15.9 2.9 2.9 15.9 2.9 32S15.9 61.1 32 61.1S61.1 48.1 61.1 32C61.1 32 61.1 32 61.1 32C61.1 15.9 48.1 2.9 32 2.9zM30 19H34V13H30V19zM30 23L34 23L37.9 47L26.1 47z" />
    <glyph glyph-name="all-possible-answers"
      unicode="&#xE03A;"
      horiz-adv-x="64" d="M0 41.4H18.8V22.6H0V41.4zM0 64H18.8V45.2H0V64zM22.6 64H64V45.2H22.6V64zM22.6 41.4H64V22.6H22.6V41.4zM22.6 18.8H64V0H22.6V18.8zM0 18.8H18.8V0H0V18.8z" />
    <glyph glyph-name="android-add-circle"
      unicode="&#xE040;"
      horiz-adv-x="64" d="M32 64C14.3 64 0 49.7 0 32S14.3 0 32 0S64 14.3 64 32S49.7 64 32 64zM52 28H36V12H28V28H12V36H28V52H36V36H52V28z" />
    <glyph glyph-name="android-arrow-dropdown"
      unicode="&#xE04A;"
      horiz-adv-x="64" d="M0 49.6L32 14.4L64 49.6z" />
    <glyph glyph-name="application-mode"
      unicode="&#xE050;"
      horiz-adv-x="64" d="M16.9 0V22.6H62.1V0H16.9zM16.9 48.9H62.1V26.3H16.9V48.9zM1.9 64H62.1V52.7H1.9V64zM13.2 0H1.9V48.9H13.2V0z" />
    <glyph glyph-name="area-chart"
      unicode="&#xE05A;"
      horiz-adv-x="64" d="M4 4L4 64L0 64L0 0L64 0L64 4zM51.8 38.9L39.9 30L23.9 51.8L8 30L8 8L62 8z" />
    <glyph glyph-name="bar-chart-small"
      unicode="&#xE060;"
      horiz-adv-x="64" d="M11 42H23V8H11V42zM30 61H41V8H30V61zM49 34H60V8H49V34zM4 4L4 64L0 64L0 0L64 0L64 4z" />
    <glyph glyph-name="bar-chart"
      unicode="&#xE06A;"
      horiz-adv-x="64" d="M3.8 3.8V64H0V0H64V3.8H3.8zM18 8H8V33.2H18.1L18 8zM32 8H21.9V52H32L32 8zM46 8H36V40H46L46 8zM59.9 8H49.9V53.6H60L59.9 8z" />
    <glyph glyph-name="bars"
      unicode="&#xE070;"
      horiz-adv-x="64" d="M61.38 5.37V8H58.63V5.37H56V32H42.63V5.37H40V58.62H26.63V5.37H24V37.37H21.37V40H18.62V37.37H13.37V40H10.62V5.37H5.37V64H0V0H64V5.37zM18.63 5.37H16V32H18.63zM34.63 5.37H32V53.37H34.63zM50.63 5.37H48V26.62H50.63zM10.63 64H13.38V61.37H10.63zM18.63 64H21.38V61.37H18.63zM26.63 64H29.38V61.37H26.63zM34.63 64H37.38V61.37H34.63zM42.63 64H45.38V61.37H42.63zM50.63 64H53.38V61.37H50.63zM58.63 64H61.38V61.37H58.63zM58.63 56H61.38V53.37H58.63zM50.63 56H53.38V53.37H50.63zM42.63 56H45.38V53.37H42.63zM42.63 48H45.38V45.37H42.63zM50.63 48H53.38V45.37H50.63zM58.63 48H61.38V45.37H58.63zM58.63 40H61.38V37.37H58.63zM50.63 40H53.38V37.37H50.63zM42.63 40H45.38V37.37H42.63zM58.63 32H61.38V29.37H58.63zM58.63 24H61.38V21.37H58.63zM58.63 16H61.38V13.37H58.63zM18.63 56H21.38V53.37H18.63zM18.63 48H21.38V45.37H18.63zM10.63 48H13.38V45.37H10.63zM10.63 56H13.38V53.37H10.63z" />
    <glyph glyph-name="base"
      unicode="&#xE07A;"
      horiz-adv-x="64" d="M32 63.9C49.6 63.9 63.9 49.6 63.9 32S49.6 0.1 32 0.1S0.1 14.4 0.1 32S14.4 63.9 32 63.9z" />
    <glyph glyph-name="bell-circle"
      unicode="&#xE080;"
      horiz-adv-x="64" d="M32 63.9C49.6 63.9 63.9 49.6 63.9 32S49.6 0.1 32 0.1S0.1 14.4 0.1 32S14.4 63.9 32 63.9z" />
    <glyph glyph-name="bell"
      unicode="&#xE08A;"
      horiz-adv-x="64" d="M60 16H4A4 4 0 0 0 4 24H8V40A24 24 0 0 0 56 40V24H60A4 4 0 0 0 60 16zM40 8A8 8 0 0 0 24 8V12H40z" />
    <glyph glyph-name="breadcrumb-country"
      unicode="&#xE090;"
      horiz-adv-x="64" d="M32 64C17.1 64 4.9 52.3 4.9 37.9C4.9 19.7 32 0 32 0S59.1 19.7 59.1 37.9C59.1 52.3 46.9 64 32 64zM32 24.6C24.4 24.5 18.2 30.5 18 38.1C18.2 45.7 24.4 51.7 32 51.6C39.6 51.7 45.8 45.7 46 38.1C45.8 30.5 39.6 24.5 32 24.6z" />
    <glyph glyph-name="breadcrumb-event"
      unicode="&#xE09A;"
      horiz-adv-x="64" d="M13 64L8.1 64L8.1 0L13 0L13 35.5L55.9 49.7z" />
    <glyph glyph-name="breadcrumb-location"
      unicode="&#xE0A0;"
      horiz-adv-x="64" d="M0 2.3V6.9H4.6V11.5H59.5V6.9H64V2.3H0zM50.3 16V43.4H54.9V16H50.3zM36.6 16V43.4H41.2V16H36.6zM22.9 16V43.4H27.5V16H22.9zM9.2 16V43.4H13.8V16H9.2zM32 61.7L59.4 48H4.6L32 61.7z" />
    <glyph glyph-name="breadcrumb-study"
      unicode="&#xE0AA;"
      horiz-adv-x="64" d="M0 0V64H64V0zM56.62 48.74H7.38V44.8H56.12V48.74zM56.62 37.42H7.38V33.48H56.12V37.42zM56.62 26.59H7.38V22.65H56.12V26.58zM56.62 15.27H7.38V11.33H56.12V15.26z" />
    <glyph glyph-name="breadcrumb-test-result"
      unicode="&#xE0B0;"
      horiz-adv-x="64" d="M0 0V64H4.92V4.92H64V0zM9.85 64H64V9.85H9.85zM49.23 14.77H54.15V39.38H49.23zM34.46 14.77H39.38V54.15H34.46zM19.69 14.77H24.61V29.54H19.69z" />
    <glyph glyph-name="breadcrumb-user"
      unicode="&#xE0BA;"
      horiz-adv-x="64" d="M5 0C5 2.8 5.5 13.4 6 16.4C6.7 20 7.6 25.3 10.9 27.6C12.8 29 15.3 29.4 17.5 30.2C19.8 30.2 19.8 24.6 29.6 24.6H34.5C44.5 24.6 44.1 30.2 46.6 30.2C48.8 29.4 51.3 28.9 53.2 27.6C56.5 25.3 57.4 20 58 16.4C58.6 13.4 58.9 3.1 59 0L5 0zM32 29.9C22 29.9 18.4 39.4 17.5 47.2C16.3 56.8 21.1 64 32 64S47.7 56.8 46.6 47.2C45.6 39.4 42 29.9 32 29.9z" />
    <glyph glyph-name="breadcrumb-visit"
      unicode="&#xE0C0;"
      horiz-adv-x="64" d="M9.8 54.2V64H14.7V54.1H9.8zM49.2 54.2V64H44.3V54.1H49.2zM64 14.8C64.1 6.8 57.8 0.2 49.8 0C49.6 0 49.5 0 49.3 0C41.3 -0.1 34.7 6.2 34.5 14.2C34.5 14.4 34.5 14.5 34.5 14.7C34.4 22.7 40.7 29.3 48.7 29.5C48.9 29.5 49 29.5 49.2 29.5C57.2 29.6 63.8 23.3 64 15.3C64 15.1 64 14.9 64 14.8zM19.7 39.4H9.8V29.5H19.6L19.7 39.4zM9.8 14.8H19.6V24.6H9.8V14.8zM24.6 29.5H34.5V39.3H24.6V29.5zM24.6 14.8H29.5L34.4 24.7H24.6V14.8zM4.9 44.3H54.1V34.4H59V59.1H54.1V49.2H39.4V59.1H19.7V49.2H4.9V59.1H0V4.9H34.5V9.8H4.9V44.3zM49.2 34.5V39.4H39.3V29.5L49.2 34.5zM54.1 14.8H49.2V24.7H44.3V9.9H54.2L54.1 14.8z" />
    <glyph glyph-name="calendar-check"
      unicode="&#xE0CA;"
      horiz-adv-x="64" d="M54.2 56.6L24.6 27.1L9.9 41.9L0 32L14.8 17.2L24.7 7.3L34.6 17.1L64 46.8L54.2 56.6z" />
    <glyph glyph-name="calendar-five-months"
      unicode="&#xE0D0;"
      horiz-adv-x="64" d="M64 64H56.46V56.48H41.46V64H22.59V56.48H7.59V64L0 64V0H64zM60.22 3.8H3.78V52.71H60.22zM22.59 41.43H11.31V30.14H22.59zM18.83 64H11.31V60.24H18.83zM52.69 64H45.17V60.24H52.69zM52.69 41.43H41.41V30.14H52.69zM37.69 41.43H26.36V30.14H37.64zM18.83 15.09H30.12V26.38H18.83zM33.83 15.09H45.17V26.38H33.88z" />
    <glyph glyph-name="calendar-multiple-months"
      unicode="&#xE0DA;"
      horiz-adv-x="64" d="M14.2 1.8L14.2 1.8V48H21.3V40.9H32V48H46.2V40.9H56.9V48H60.5V37.3H17.8V5.3H60.5V48H64V1.8H14.2zM24.9 33.8H53.3V8.9H24.9V33.8zM49.8 44.4V48H53.4V44.4H49.8zM24.9 44.4V48H28.5V44.4H24.9zM10.7 8.9H7.1V55.1H56.9V51.5H10.7V8.9zM3.6 16H0V62.2H49.8V58.6H3.6V16z" />
    <glyph glyph-name="calendar-normal"
      unicode="&#xE0DB;"
      horiz-adv-x="64" d="M18.5 63.9H45.5C55.7 64 64 55.7 64 45.5V18.6C64 8.4 55.7 0.1 45.5 0.1H18.5C8.3 0 0 8.3 0 18.5V45.5C0 55.7 8.3 64 18.5 63.9z" />
    <glyph glyph-name="calendar-normal-overdue"
      unicode="&#xE0E0;"
      horiz-adv-x="64" d="M18.5 64C8.3 64 0 55.7 0 45.5C0 45.5 0 45.5 0 45.5V30.1L34 64H18.5zM45.5 64H44.6L0 19.4V18.5C0 14.4 1.4 10.5 3.9 7.3L56.7 60.1C53.5 62.6 49.6 64 45.5 64zM61.6 54.4L9.6 2.4C12.3 0.8 15.4 0 18.5 0H23.2L64 40.8V45.5C64 48.6 63.2 51.7 61.6 54.4zM45.5 0C55.7 0 64 8.3 64 18.5C64 18.5 64 18.5 64 18.5V30.2L33.8 0H45.5z" />
    <glyph glyph-name="calendar-one-month"
      unicode="&#xE0EA;"
      horiz-adv-x="64" d="M0.07 0.08V64L7.61 64V56.48H22.61V64H41.41V56.48H56.41V64H63.93V0.08zM60.25 52.72H3.85V3.84H60.25zM52.73 11.36H11.37V45.2H52.73zM45.21 64H52.73V60.24H45.21zM11.37 64H18.89V60.24H11.37z" />
    <glyph glyph-name="calendar-randomization-overdue"
      unicode="&#xE0F0;"
      horiz-adv-x="64" d="M28.95 60.3L7.15 38.4L13.15 28.5L44.95 60.3zM8.45 60.3C0.85 60.3 -2.65 55.3 0.75 49.1L3.15 45.1L18.35 60.3H8.45zM55.55 60.2L17.25 21.8L23.25 11.8L63.25 51.8C64.25 56.4 61.25 59.8 55.55 60.2zM31.45 3.7C33.75 3.7 35.95 5.2 37.65 8.3L48.65 26.6L27.55 5.5C28.55 4.5 29.95 3.8 31.45 3.7z" />
    <glyph glyph-name="calendar-randomization"
      unicode="&#xE0FA;"
      horiz-adv-x="64" d="M55 60.2H9C1.4 60.2 -2.1 55.2 1.3 49L25.8 8.4C27.5 5.3 29.7 3.8 32 3.8S36.5 5.3 38.2 8.4L62.7 49C66.1 55.2 62.7 60.2 55 60.2L55 60.2z" />
    <glyph glyph-name="calendar-termination"
      unicode="&#xE100;"
      horiz-adv-x="64" d="M48 3.8H16L0 32L16 60.2H48L64 32L48 3.8z" />
    <glyph glyph-name="calendar-three-months"
      unicode="&#xE10A;"
      horiz-adv-x="64" d="M64 64H56.46V56.48H41.46V64H22.59V56.48H7.59V64L0 64V0H64zM60.22 3.8H3.78V52.71H60.22zM22.59 45.19H11.31V11.33H22.59zM18.83 64H11.31V60.24H18.83zM52.69 64H45.17V60.24H52.69zM52.69 45.19H41.41V11.33H52.69zM37.69 45.19H26.36V11.33H37.64z" />
    <glyph glyph-name="calendar-unscheduled"
      unicode="&#xE110;"
      horiz-adv-x="64" d="M61 39.2C65 35.2 65 28.7 61 24.7C61 24.7 61 24.7 61 24.7L39.3 3C35.3 -1 28.8 -1 24.8 3C24.8 3 24.8 3 24.8 3L3 24.7C-1 28.7 -1 35.2 3 39.2C3 39.2 3 39.2 3 39.2L24.8 61C28.8 65 35.3 65 39.3 61C39.3 61 39.3 61 39.3 61L61 39.2z" />
    <glyph glyph-name="calendar"
      unicode="&#xE11A;"
      horiz-adv-x="64" d="M-0.02 0V64L7.54 64V56.47H22.6V64H41.43V56.47H56.49V64H64.02L64.02 0zM60.25 52.7H3.77V3.7H60.25zM22.6 37.64H11.3V48.94H22.6zM22.6 22.58H11.3V33.88H22.6zM22.6 7.52H11.3V18.81H22.6zM37.66 37.64H26.36V48.94H37.66zM37.66 22.58H26.36V33.88H37.66zM37.66 7.52H26.36V18.81H37.66zM52.72 37.64H41.43V48.94H52.73zM52.72 22.58H41.43V33.88H52.73zM52.72 7.52H41.43V18.81H52.73zM45.19 64H52.72V60.24H45.19zM11.3 64H18.87V60.24H11.3z" />
    <glyph glyph-name="chevron-down"
      unicode="&#xE120;"
      horiz-adv-x="64" d="M56.4 52.4L32 27.2L7.6 52.4L0 44.4L32 11.7L64 44.4L56.4 52.4z" />
    <glyph glyph-name="chevron-left"
      unicode="&#xE12A;"
      horiz-adv-x="64" d="M52.36 7.56L27.15 32L52.36 56.44L44.38 64L11.64 32L44.38 0z" />
    <glyph glyph-name="chevron-right"
      unicode="&#xE130;"
      horiz-adv-x="64" d="M19.63 0L52.37 32L19.63 64L11.63 56.44L36.86 32L11.65 7.56z" />
    <glyph glyph-name="chevron-up"
      unicode="&#xE13A;"
      horiz-adv-x="64" d="M64 19.62L32 52.36L0 19.62L7.56 11.62L32 36.85L56.44 11.64z" />
    <glyph glyph-name="circle-one"
      unicode="&#xE140;"
      horiz-adv-x="64" d="M32 64C14.3 64 0 49.7 0 32S14.3 0 32 0S64 14.3 64 32S49.7 64 32 64zM42.9 12.5H21.1V21.9H27.4V33.3H21.1V42.4H27.4H27.5V51.5H36.5L36.6 21.9H42.9V12.5z" />
    <glyph glyph-name="circle"
      unicode="&#xE14A;"
      horiz-adv-x="64" d="M32 63.9C49.6 63.9 63.9 49.6 63.9 32S49.6 0.1 32 0.1S0.1 14.4 0.1 32S14.4 63.9 32 63.9z" />
    <glyph glyph-name="client-uat"
      unicode="&#xE150;"
      horiz-adv-x="64" d="M56.5 3.8L7.5 3.8L7.5 60.2L37.7 60.2L37.7 64L3.8 64L3.8 0L60.2 0L60.2 30.1L56.5 30.1zM20.2 45.2L15.1 40L32 23.1L60.2 51.3L55.1 56.5L32 33.4z" />
    <glyph glyph-name="clinical-data"
      unicode="&#xE15A;"
      horiz-adv-x="64" d="M0 0.11V64H3.76V3.88H64V0.12zM7.53 64H64V7.64H7.53zM11.29 34L22.59 15.17L33.88 45.29L45.18 11.41L56.47 34H60.23V37.76H52.71L45.18 22.7L33.88 56.58L22.59 26.47L15.06 37.76H11.29z" />
    <glyph glyph-name="close"
      unicode="&#xE160;"
      horiz-adv-x="64" d="M64 6.4L57.6 0L32 25.6L6.4 0L0 6.4L25.6 32L0 57.6L6.4 64L32 38.4L57.6 64L64 57.6L38.4 32z" />
    <glyph glyph-name="collapse"
      unicode="&#xE16A;"
      horiz-adv-x="64" d="M44 40H56V36H36V56H40V44L58.66 64L64 58.58zM24 20L5.34 0L0 5.42L20 24H8V28H28V8H24zM8 40H20L0 58.58L4 64L24 44V56H28V36H8zM56 24H44L64 5.42L58.66 0L40 20V8H36V28H56z" />
    <glyph glyph-name="complete"
      unicode="&#xE170;"
      horiz-adv-x="64" d="M32 0C14.3 0 0 14.3 0 32S14.3 64 32 64S64 49.7 64 32S49.7 0 32 0zM44.7 45.8L28.7 29.8L20.7 37.8L15.4 32.5L23.4 24.5L28.7 19.2L34 24.5L50 40.5L44.7 45.8z" />
    <glyph glyph-name="content-calendar"
      unicode="&#xE17A;"
      horiz-adv-x="64" d="M0 0V64L7.54 64V56.48H22.54V64H41.41V56.48H56.41V64H64L64 0.06zM60.22 52.71H3.78V3.8H60.22zM22.6 37.71H11.31V49H22.59zM22.6 22.71H11.31V33.9H22.59zM22.6 7.71H11.31V18.85H22.59zM37.6 37.81H26.36V49H37.64zM37.6 22.81H26.36V33.9H37.64zM37.6 7.81H26.36V18.85H37.64zM52.6 37.91H41.41V49H52.69zM52.6 22.91H41.41V33.9H52.69zM52.6 7.91H41.41V18.85H52.69zM45.17 64H52.69V60.24H45.17zM11.31 64H18.83V60.24H11.31z" />
    <glyph glyph-name="content-time"
      unicode="&#xE180;"
      horiz-adv-x="64" d="M32 0C14.3 0 0 14.3 0 32S14.3 64 32 64S64 49.7 64 32S49.7 0 32 0zM48.9 33.9H33.9V52.7H30.1V30.1H48.9V33.9z" />
    <glyph glyph-name="content-warning"
      unicode="&#xE18A;"
      horiz-adv-x="64" d="M61.75 3.8H1.95C1.25 3.8 0.55 4.2 0.15 4.8C-0.25 5.4 -0.25 6.2 0.15 6.9L30.05 59.2C30.65 60.2 31.85 60.5 32.85 60C33.15 59.8 33.45 59.6 33.65 59.2L63.55 7C63.75 6.7 63.85 6.3 63.85 5.8C63.85 4.7 62.95 3.8 61.75 3.8zM29.95 11.3H33.75V18.8H29.95V11.3zM26.15 41.4L29.95 22.6H33.75L37.55 41.4H26.15z" />
    <glyph glyph-name="dashboard"
      unicode="&#xE190;"
      horiz-adv-x="64" d="M0 64H30V15.9H0V64zM34 64H64V36.2H34V64zM0 12.4H30V0H0V12.4zM34 32H64V0H34V32z" />
    <glyph glyph-name="data-export"
      unicode="&#xE19A;"
      horiz-adv-x="64" d="M64 42.14L45.18 24.47V32C31.85 32.49 22.65 28.46 15.87 21.77C15.87 37.67 31.02 50.68 45.18 50.82V58.35zM3.76 47.06V9.41H52.71V20.71L56.47 24.47V5.65H0V50.82H22.59L18.83 47.06z" />
    <glyph glyph-name="data-management"
      unicode="&#xE1A0;"
      horiz-adv-x="64" d="M0 64L0 15L19 15L19 19L4 19L4 60L60 60L60 49L64 49L64 64L0 64zM53.89 43.44A17.85 17.85 0 0 1 30.2 35.08A17.47 17.47 0 0 1 31.91 17.08L18.8 4L22.7 0.1L35.81 13.18A17.55 17.55 0 0 1 38.49 11.57A17.86 17.86 0 0 1 62.18 19.93A17.54 17.54 0 0 1 53.89 43.44zM56.83 22.44A11.92 11.92 0 0 0 41 16.85A11.710000000000003 11.710000000000003 0 0 0 35.48 32.54A11.91 11.91 0 0 0 51.28 38.12A11.7 11.7 0 0 0 56.84 22.43z" />
    <glyph glyph-name="download"
      unicode="&#xE1AA;"
      horiz-adv-x="64" d="M0 0V11.29H3.76V3.76H60.24V11.29H64V0zM30.12 15.06L11.29 33.88H22.59V64H41.41V33.88H52.71L33.88 15.06z" />
    <glyph glyph-name="email"
      unicode="&#xE1B0;"
      horiz-adv-x="64" d="M0 9.41V47.06L32 30.42L64 47.06V9.41zM0 50.82V54.59H64V50.83L32 36.14z" />
    <glyph glyph-name="reply"
      unicode="&#xE1B1;"
      horiz-adv-x="64" d="M63.66 22.86Q63.66 16.93 59.12 6.75L58.74 5.89L58.26 4.82A4 4 0 0 0 57.8 4.03A1.22 1.22 0 0 0 56.8 3.42A1 1 0 0 0 55.96 3.78A1.33 1.33 0 0 0 55.66 4.67A7.21 7.21 0 0 0 55.75 5.62A7.29 7.29 0 0 1 55.84 6.46Q56.02 8.89 56.02 10.85A30.32 30.32 0 0 1 55.39 17.31A19.48 19.48 0 0 1 53.66 22.27A12.4 12.4 0 0 1 50.8 25.88A16.82 16.82 0 0 1 47.03 28.36A20.42 20.42 0 0 1 42.28 29.88A45.24 45.24 0 0 1 36.78 30.65Q34.01 30.86 30.51 30.86H22.51V21.72A2.27 2.27 0 0 0 18.66 20.11L0.34 38.39A2.25 2.25 0 0 0 0.34 41.61L18.66 59.89A2.25 2.25 0 0 0 21.88 59.89A2.2 2.2 0 0 0 22.56 58.28V49.14H30.56Q56.02 49.14 61.81 34.75A32.53 32.53 0 0 0 63.66 22.86z" />
    <glyph glyph-name="expand"
      unicode="&#xE1BA;"
      horiz-adv-x="64" d="M45.18 0V3.76H56.47L39.39 19.76L44.21 24.65L60.21 7.57V18.82H64V0zM60.24 56.47L44.24 39.39L39.42 44.28L56.5 60.28H45.18V64H64V45.18H60.24zM18.82 3.76V0H0V18.82H3.76V7.53L19.76 24.61L24.58 19.72L7.5 3.72zM19.82 39.38L3.76 56.47V45.18H0V64H18.82V60.24H7.53L24.61 44.24z" />
    <glyph glyph-name="export"
      unicode="&#xE1C0;"
      horiz-adv-x="64" d="M41.41 41.41V64L64 41.41zM64 37.64L64 0H15.07V15.06L33.88 30.11V33.88L15.07 48.93V64H37.65V37.64H64zM28.18 32L11.29 18.82V26.35H0V37.64H11.29V45.17z" />
    <glyph glyph-name="fax"
      unicode="&#xE1CA;"
      horiz-adv-x="64" d="M52.71 18.82V3.76H11.29V18.82H0V52.71H11.29V60.24H52.71V52.71H64V18.82zM11.29 45.18H3.76V41.42H11.29zM48.94 56.47C49.29 56.35 15.06 56.47 15.06 56.47V52.71H48.94zM48.94 26.35H15.06V7.53H48.94z" />
    <glyph glyph-name="qrcode"
      unicode="&#xE1CB;"
      horiz-adv-x="64" d="M11.64 52.36H17.46V46.54H11.64V52.36zM11.64 17.46H17.46V11.64H11.64V17.46zM0 0H29.09V29.09H0zM5.82 23.27H23.27V5.86H5.82zM58.18 23.28L52.36 23.28L52.36 29.09L34.91 29.09L34.91 0L40.73 0L40.73 17.46L46.55 17.46L46.55 11.64L64 11.64L64 29.09L64 29.09L58.18 29.09L58.18 23.28zM46.54 52.36H52.36V46.54H46.54V52.36zM34.91 64V34.91H64V64zM58.18 40.73H40.73V58.18H58.18zM58.18 5.82H64V0H58.18V5.82zM0 34.91H29.09V64H0zM5.82 58.18H23.27V40.73H5.82zM46.54 5.82H52.36V0H46.54V5.82z" />
    <glyph glyph-name="function-approve-or-reject-removal"
      unicode="&#xE1D0;"
      horiz-adv-x="64" d="M45.2 60.2L45.2 64L18.8 64L18.8 60.2L3.8 60.2L3.8 56.5L18.8 56.5L45.2 56.5L60.2 56.5L60.2 60.2zM9.4 0H54.6L60.2 52.7H3.8L9.4 0zM33.9 11.3H30.1V15.1H33.9V11.3zM32 43.3C37.8 43.3 41.9 40 41.4 33.8C41.2 31.5 40 29.5 38.1 28.2V28.2C36.8 27.2 33.9 25.4 33.9 21.6V18.8H30.2C30.2 18.8 30.2 21.1 30.2 22.6C30.3 24.1 30.8 25.6 31.6 26.8C32.7 28.2 33.9 29.5 35.4 30.6C36.8 31.6 37.7 33.1 37.8 34.8C37.8 37.2 35.9 39.5 32.2 39.5C27 39.5 26.6 33.8 26.6 33.8H22.8C22.6 37.6 26.3 43.3 32 43.3z" />
    <glyph glyph-name="function-approve-removal"
      unicode="&#xE1DA;"
      horiz-adv-x="64" d="M45.2 56.5L60.2 56.5L60.2 60.2L45.2 60.2L45.2 64L18.8 64L18.8 60.2L3.8 60.2L3.8 56.5L18.8 56.5zM3.8 52.7L9.5 0H54.6L60.2 52.7H3.8zM27.1 12.7L14.6 23.9L18.3 27.4L27.1 19.4L44.7 35.2L48.4 31.5L27.1 12.7z" />
    <glyph glyph-name="function-delete"
      unicode="&#xE1E0;"
      horiz-adv-x="64" d="M45.2 56.5L60.2 56.5L60.2 60.2L45.2 60.2L45.2 64L18.8 64L18.8 60.2L3.8 60.2L3.8 56.5L18.8 56.5zM3.8 52.7L9.4 0H54.6L60.2 52.7H3.8zM22.6 11.3H18.8L18.8 41.4H22.6V11.3zM33.9 11.3H30.1V41.4H33.9V11.3zM45.2 11.3H41.4V41.4H45.2V11.3z" />
    <glyph glyph-name="function-edit"
      unicode="&#xE1EA;"
      horiz-adv-x="64" d="M41.4 24.5L48.9 32V0H0V37.6V64H48.9V50.8L41.4 43.2L22.6 24.5L15.1 7.6L32 15.1L41.4 24.5zM64 52.7L60.2 56.5L30.1 26.3L22.6 15L33.9 22.5L64 52.7z" />
    <glyph glyph-name="function-reject-removal"
      unicode="&#xE1F0;"
      horiz-adv-x="64" d="M45.2 56.5L60.2 56.5L60.2 60.2L45.2 60.2L45.2 64L18.8 64L18.8 60.2L3.8 60.2L3.8 56.5L18.8 56.5zM3.8 52.7L9.5 0H54.6L60.2 52.7H3.8zM47 13.5L43 9.4L32 20.4L21 9.4L16.9 13.5L27.9 24.5L16.9 35.5L21 39.5L32 28.5L43 39.5L47.1 35.4L36.1 24.4L47 13.5z" />
    <glyph glyph-name="function-scoring-results"
      unicode="&#xE1FA;"
      horiz-adv-x="64" d="M26.55 64H37.85V56.5H26.55V64zM41.55 60.2V52.7H22.65V60.2H7.55V0H56.45V60.2H41.55zM49.05 7.5L49.05 7.5H15.15V11.3H49.05V7.5zM49.05 18.8L49.05 18.8H15.15V22.6H49.05V18.8zM49.05 30.1L49.05 30.1H15.15V33.9H49.05V30.1zM49.05 41.4L49.05 41.4H15.15V45.2H49.05V41.4z" />
    <glyph glyph-name="globe"
      unicode="&#xE200;"
      horiz-adv-x="64" d="M34.13 63.92V64H29.87V63.92A32 32 0 0 1 0.08 34.13H0V29.87H0.08A32 32 0 0 1 29.87 0.08V0H34.13V0.08A32 32 0 0 1 63.92 29.87H64V34.13H63.92A32 32 0 0 1 34.13 63.92zM20 57A33.94 33.94 0 0 1 15 46.91H8.62A27.880000000000003 27.880000000000003 0 0 0 20 57zM6.39 42.67H13.89A51.17 51.17 0 0 1 12.89 34.14H4.35A27.42 27.42 0 0 0 6.39 42.67zM4.39 29.87H12.88A51.21 51.21 0 0 1 13.88 21.33H6.39A27.47 27.47 0 0 0 4.35 29.87zM8.67 17.07H15A34 34 0 0 1 20 7A27.889999999999997 27.889999999999997 0 0 0 8.62 17.07zM29.87 4.54C25.48 5.71 21.71 10.42 19.42 17.06H29.87zM29.87 21.33H18.21A47.709999999999994 47.709999999999994 0 0 0 17.1 29.87H29.87zM29.87 34.13H17.11A47.62 47.62 0 0 0 18.22 42.66H29.87zM29.87 46.93H19.41C21.7 53.58 25.48 58.29 29.87 59.46V46.93zM55.38 46.93H49A33.94 33.94 0 0 1 44 57A27.929999999999996 27.929999999999996 0 0 0 55.38 46.93zM34.13 59.46C38.51 58.29 42.29 53.58 44.58 46.94H34.13zM34.13 42.67H45.78A48 48 0 0 0 46.89 34.14H34.13zM34.13 29.87H46.89A47.709999999999994 47.709999999999994 0 0 0 45.78 21.33H34.13zM34.13 4.54V17.07H44.59C42.29 10.43 38.51 5.71 34.13 4.54zM44 7A34.07 34.07 0 0 1 49 17.09H55.38A27.849999999999998 27.849999999999998 0 0 0 44 7zM57.61 21.33H50.11A50.82 50.82 0 0 1 51.16 29.87H59.65A27.580000000000002 27.580000000000002 0 0 0 57.61 21.33zM51.16 34.13A50.769999999999996 50.769999999999996 0 0 1 50.11 42.66H57.61A27.530000000000005 27.530000000000005 0 0 0 59.61 34.13z" />
    <glyph glyph-name="graph"
      unicode="&#xE20A;"
      horiz-adv-x="64" d="M3.8 3.8V64H0V0H64V3.8H3.8zM27.9 8H15.9V33.2H27.9V8zM44 8H32V52H44.1L44 8zM60 8H48V40H60L60 8zM7.8 48H3.8V52H7.8V48zM7.8 36H3.8V40H7.8V36zM7.8 24H3.8V28H7.8V24zM7.8 11.9H3.8V16H7.8V11.9zM7.8 59.9H3.8V64H7.8V59.9z" />
    <glyph glyph-name="grid"
      unicode="&#xE210;"
      horiz-adv-x="64" d="M0 64H64V45.2H0V64zM64 22.6H0V41.4H64V22.6zM64 0H0V18.8H64V0z" />
    <glyph glyph-name="group-view"
      unicode="&#xE21A;"
      horiz-adv-x="64" d="M45.18 0V18.82H64V0zM45.18 41.41H64V22.59H45.18zM0 64H64V45.18H0zM18.82 22.59H0V41.41H18.82zM18.82 0H0V18.82H18.82zM41.41 22.59H22.59V41.41H41.41zM41.41 0H22.59V18.82H41.41z" />
    <glyph glyph-name="help"
      unicode="&#xE220;"
      horiz-adv-x="64" d="M32 63.5C14.6 63.5 0.5 49.4 0.5 32S14.6 0.5 32 0.5S63.5 14.6 63.5 32C63.5 49.4 49.4 63.5 32 63.5zM35.2 9.9H28.9V16.2H35.2V9.9zM41.8 34.2L38.9 31.4C36.4 29.2 35.1 27.3 35.1 22.5H28.8V24.1C28.7 27.5 30.1 30.7 32.6 33L36.4 37.1C37.7 38.1 37.6 39.4 37.6 41.3C37.6 44.7 35.5 47.8 32.1 47.8S26.5 44.8 26.5 41.3H19C19 48.5 24.8 54.3 32 54.3S45 48.5 45 41.3C45 38.4 43.4 36.1 41.8 34.2L41.8 34.2z" />
    <glyph glyph-name="home"
      unicode="&#xE22A;"
      horiz-adv-x="64" d="M62.05 36.5L31.95 64L1.85 36.5C1.15 36.1 0.75 35.4 0.75 34.6C0.75 33.2 1.85 32 3.25 32C3.25 32 3.35 32 3.35 32C3.45 32 3.65 32 3.75 32V0H31.95V22.6H47.05V0H60.25V32C60.25 32 60.25 32 60.25 32C61.95 32 63.25 33.3 63.25 35C63.05 35.7 62.65 36.2 62.05 36.5z" />
    <glyph glyph-name="incomplete"
      unicode="&#xE230;"
      horiz-adv-x="64" d="M29.85 30.8L55.45 53.8C67.45 40.9 66.75 20.6 53.85 8.6S20.55 -2.7 8.55 10.2S-2.75 43.4 10.15 55.5C15.55 60.5 22.45 63.5 29.85 64V30.8z" />
    <glyph glyph-name="info-circle"
      unicode="&#xE23A;"
      horiz-adv-x="64" d="M32 64C14.3 64 0 49.7 0 32S14.3 0 32 0S64 14.3 64 32S49.7 64 32 64zM27.4 50.4H34.3L34.4 43.4H27.4L27.4 50.4zM38.9 16.1H25.1V20.6H29.6V34.4H27.3V38.9H34.2V20.6H38.8L38.9 16.1z" />
    <glyph glyph-name="info"
      unicode="&#xE240;"
      horiz-adv-x="64" d="M32 64C14.3 64 0 49.7 0 32S14.3 0 32 0S64 14.3 64 32C63.9 49.6 49.6 63.9 32 64zM32.1 9.1C32 9.1 32 9.1 32.1 9.1C19.4 9.1 9.1 19.4 9.1 32S19.4 54.9 32 54.9S54.9 44.6 54.9 32C54.9 19.4 44.7 9.2 32.1 9.1zM32 41.1C34.5 41.1 36.5 43.1 36.6 45.5C36.6 45.5 36.6 45.6 36.6 45.6C36.6 48.1 34.6 50.2 32 50.2C29.5 50.1 27.5 48.1 27.4 45.6C27.4 43.2 29.5 41.2 32 41.1zM37 32C37 34.3 34.1 37 32 37H27.7C25.6 37 23.4 34.3 23.4 32H28V18.3C28 16 29.7 14.1 32 14H36.3C38.5 14.1 40.3 15.8 40.6 18H37V32z" />
    <glyph glyph-name="landline-phone"
      unicode="&#xE24A;"
      horiz-adv-x="64" d="M64 13.5C64.1 12.5 63.8 11.5 63 10.8L54 1.8C53.6 1.3 53 0.9 52.4 0.6C51.8 0.3 51.1 0.1 50.5 0H50.1C49.9 0 49.6 0 49.2 0C47.8 0 46.4 0.2 45 0.4C42.6 0.9 40.2 1.6 38 2.6C34.7 4 31.5 5.8 28.6 7.8C24.5 10.6 20.8 13.7 17.3 17.3C14.4 20.1 11.8 23.1 9.4 26.3C7.5 28.8 5.9 31.4 4.4 34.2C3.3 36.3 2.3 38.5 1.6 40.8C1 42.4 0.6 44.1 0.3 45.8C0.1 46.9 0 48 0 49.1C0 49.9 0.1 50.4 0.1 50.5C0.2 51.2 0.4 51.8 0.7 52.4C1 53 1.3 53.5 1.8 54L10.8 63C11.4 63.6 12.1 64 13 64C13.6 64 14.1 63.8 14.6 63.5C15.1 63.2 15.4 62.7 15.7 62.2L23 48.4C23.4 47.7 23.5 46.8 23.3 46C23.1 45.2 22.7 44.4 22.2 43.8L18.9 40.5C18.8 40.4 18.7 40.2 18.7 40.1C18.6 39.9 18.6 39.8 18.6 39.6C18.9 38.5 19.3 37.4 19.8 36.3C20.5 34.9 21.4 33.6 22.3 32.3C23.7 30.4 25.3 28.6 27 26.9C28.7 25.1 30.5 23.5 32.4 22.1C33.7 21.2 35 20.3 36.4 19.6C37.2 19.2 38 18.8 38.8 18.6L39.6 18.4C39.8 18.4 39.9 18.4 40 18.5C40.2 18.5 40.3 18.6 40.4 18.7L44.3 22.6C45.1 23.3 46.1 23.7 47.1 23.7C47.7 23.7 48.4 23.6 48.9 23.3H49L62.1 15.6C63.1 15.2 63.7 14.4 64 13.5z" />
    <glyph glyph-name="line-chart"
      unicode="&#xE250;"
      horiz-adv-x="64" d="M3.8 64L0 64L0 0L64 0L64 3.8L3.8 3.8zM49.7 47.8L54.1 43.4L39.7 29L30.5 38.6L9.3 17.4L14.7 12L30.3 27.6L39.9 18L59.5 38L64 33.5L64 47.8z" />
    <glyph glyph-name="line-graph-dotted"
      unicode="&#xE25A;"
      horiz-adv-x="64" d="M21.5 10.7L21.5 10.7L21.7 10.7L26.5 34.2L23.5 40.9L17.9 13.8L3.8 7.4L3.8 64L0 64L0 0L64 0L64 3.8L6.2 3.8zM22.1 44L24.1 44L24.1 47.6L24.9 48L24.9 48L24.1 47.6L24.1 48L20 48L20 44L22.1 44L23.5 40.9L23.5 40.9zM26.5 34.2L26.5 34.2L33.9 17.8L36.5 22.4L36.5 22.4L57 57.9L53.3 60L34.4 27.1L25 48L24.9 48L23.5 40.9zM12.1 64H16.1V60H12.1V64zM20 64H24V60H20V64zM3.9 64H7.9V60H3.9V64zM28 64H32V60H28V64zM36 64H40V60H36V64zM44.1 64H48.1V60H44.1V64zM56.1 64L52 64L52 60L53.3 60L56.1 60zM60 64H64V60H60V64zM12.1 56.1H16.1V52.1H12.1V56.1zM20 56.1H24V52.1H20V56.1zM3.9 56.1H7.9V52.1H3.9V56.1zM28 56.1H32V52.1H28V56.1zM44.2 8H48.2V4H44.2V8zM52.2 8H56.2V4H52.2V8zM36 8H40V4H36V8zM36 48H40V44H36V48zM44.1 16H48.1V12H44.1V16zM52 16H56V12H52V16zM36 16H40V12H36V16zM60 16H64V12H60V16zM44.1 23.9H48.1V19.9H44.1V23.9zM52 23.9H56V19.9H52V23.9zM60 23.9H64V19.9H60V23.9zM52 32H56V28H52V32zM60 32H64V28H60V32zM12.1 48H16.1V44H12.1V48zM3.9 48H7.9V44H3.9V48zM28 48H32V44H28V48zM12.1 40.3H16.1V36.3H12.1V40.3zM3.9 40.3H7.9V36.3H3.9V40.3zM52 40H56V36H52V40zM60 40H64V36H60V40zM60 48H64V44H60V48zM28 8H32V4H28V8zM36 56.1H40V52.1H36V56.1zM44 56.1H48V52.1H44V56.1zM3.9 32H7.9V28H3.9V32zM11.8 32H15.8V28H11.8V32zM3.9 23.9H7.9V19.9H3.9V23.9zM11.8 23.9H15.8V19.9H11.8V23.9zM3.9 16H7.9V12H3.9V16zM27.8 16H31.8V12H27.8V16zM20 8H24V4H20V8zM44 32H48V28H44V32zM52 48H56V44H52V48zM60 56.1H64V52.1H60V56.1zM60 8H64V4H60V8z" />
    <glyph glyph-name="line-graph"
      unicode="&#xE260;"
      horiz-adv-x="64" d="M3.8 3.8V64H0V0H64V3.8H3.8zM31.7 34.8L41.3 25.2L63.6 48L58.2 53.4L41.1 36.1L31.9 45.7L10.7 24.5L16.1 19.1L31.7 34.8z" />
    <glyph glyph-name="link-broken"
      unicode="&#xE26A;"
      horiz-adv-x="64" d="M16.9 15.1L7 5.3C6.7 5.1 6.4 5 6.1 5C5.8 5 5.5 5.1 5.2 5.3C5 5.6 4.9 5.9 4.9 6.2C4.9 6.5 5 6.8 5.2 7.1L15 16.9C15.3 17.1 15.6 17.2 15.9 17.2C16.2 17.2 16.5 17.1 16.8 16.9C17 16.6 17.1 16.3 17.1 16S17.1 15.4 16.9 15.1zM23.4 13.5V1.2C23.4 0.8 23.3 0.5 23.1 0.3C22.9 0.1 22.6 0 22.2 0C21.8 0 21.5 0.1 21.3 0.3C21.1 0.5 21 0.8 21 1.2V13.5C21 13.9 21.1 14.2 21.3 14.4C21.5 14.6 21.8 14.7 22.2 14.7S22.9 14.6 23.1 14.4C23.3 14.2 23.4 13.9 23.4 13.5zM14.8 22.2C14.8 21.8 14.7 21.5 14.5 21.3C14.3 21.1 14 21 13.6 21H1.2C0.8 21 0.5 21.1 0.3 21.3C0.1 21.5 0 21.8 0 22.2C0 22.6 0.1 22.9 0.3 23.1C0.5 23.3 0.8 23.4 1.2 23.4H13.5C13.9 23.4 14.2 23.3 14.4 23.1C14.7 22.8 14.8 22.5 14.8 22.2zM63.4 17.2C63.4 14.1 62.3 11.5 60.1 9.4L54.4 3.8C52.3 1.7 49.7 0.6 46.6 0.6C43.5 0.6 40.9 1.7 38.8 3.9L26 16.8C25.5 17.3 24.9 18.1 24.4 19L33.6 19.7L44 9.1C44.7 8.4 45.6 8.1 46.6 8C47.7 8 48.5 8.3 49.2 9L54.9 14.6C55.6 15.3 56 16.2 56 17.2C56 18.2 55.6 19.1 54.9 19.8L44.4 30.4L45.1 39.6C46 39.1 46.7 38.5 47.3 38L60.2 25.1C62.3 22.9 63.4 20.3 63.4 17.2L63.4 17.2zM39.7 45.1L30.5 44.4L20 54.9C19.2 55.6 18.4 56 17.3 56C16.3 56 15.4 55.7 14.7 55L9 49.4C8.4 48.6 8 47.8 8 46.8C8 45.8 8.4 44.9 9.1 44.2L19.6 33.7L18.9 24.5C18 25 17.3 25.6 16.7 26.1L3.9 38.9C1.7 41.1 0.7 43.7 0.7 46.7C0.7 49.8 1.8 52.4 4 54.5L9.7 60.1C11.8 62.2 14.4 63.3 17.5 63.3C20.6 63.3 23.2 62.2 25.3 60L38 47.2C38.6 46.7 39.1 46 39.7 45.1L39.7 45.1zM64 41.8C64 41.4 63.9 41.1 63.7 40.9C63.5 40.7 63.2 40.6 62.8 40.6H50.5C50.1 40.6 49.8 40.7 49.6 40.9C49.4 41.1 49.3 41.4 49.3 41.8S49.4 42.5 49.6 42.7C49.8 42.9 50.1 43 50.5 43H62.8C63.2 43 63.5 42.9 63.7 42.7C63.9 42.5 64 42.2 64 41.8zM43.1 62.8V50.5C43.1 50.1 43 49.8 42.8 49.6S42.3 49.3 41.9 49.3S41.2 49.4 41 49.6S40.7 50.1 40.7 50.5V62.8C40.7 63.2 40.8 63.5 41 63.7S41.5 64 41.8 64S42.5 63.9 42.7 63.7S43.1 63.1 43.1 62.8zM58.7 57L48.9 47.2C48.6 47 48.3 46.9 48 46.9C47.7 46.9 47.4 47 47.1 47.2C46.9 47.5 46.8 47.8 46.8 48.1C46.8 48.4 46.9 48.7 47.1 49L57 58.7C57.3 58.9 57.6 59 57.9 59S58.5 58.9 58.8 58.7C59 58.4 59.1 58.1 59.1 57.8C59.1 57.5 59 57.2 58.7 57z" />
    <glyph glyph-name="link"
      unicode="&#xE270;"
      horiz-adv-x="64" d="M56.6 16.9C56.6 17.9 56.2 18.8 55.5 19.6L47.3 27.8C46.6 28.5 45.7 28.9 44.6 28.9C43.5 28.9 42.6 28.5 41.8 27.6C41.9 27.5 42.1 27.3 42.5 26.9S43.2 26.2 43.3 26.1C43.4 25.9 43.6 25.7 43.9 25.4C44.1 25.1 44.3 24.7 44.4 24.4C44.5 24.1 44.5 23.7 44.5 23.3C44.5 22.3 44.1 21.4 43.4 20.6C42.7 19.9 41.8 19.5 40.7 19.5C40.3 19.5 39.9 19.5 39.6 19.6C39.3 19.7 38.9 19.9 38.6 20.1C38.3 20.3 38 20.5 37.9 20.7S37.5 21.1 37.1 21.5C36.7 21.9 36.5 22.2 36.4 22.2C35.5 21.4 35.1 20.4 35.1 19.3C35.1 18.3 35.5 17.4 36.2 16.6L44.3 8.5C45 7.8 45.9 7.4 47 7.4C48 7.4 48.9 7.7 49.7 8.4L55.5 14.1C56.2 15.1 56.6 15.9 56.6 16.9L56.6 16.9zM29 44.6C29 45.6 28.6 46.5 27.9 47.3L19.8 55.4C19.1 56.1 18.2 56.5 17.1 56.5C16.1 56.5 15.2 56.1 14.4 55.4L8.6 49.7C7.9 49 7.5 48.1 7.5 47.1C7.5 46.1 7.9 45.2 8.6 44.4L16.8 36.2C17.5 35.5 18.4 35.1 19.5 35.1C20.6 35.1 21.5 35.5 22.3 36.3C22.2 36.4 22 36.6 21.6 37C21.2 37.4 20.9 37.7 20.8 37.8C20.7 38 20.5 38.2 20.2 38.5C20 38.8 19.8 39.2 19.7 39.5C19.6 39.8 19.6 40.2 19.6 40.6C19.6 41.6 20 42.5 20.7 43.3S22.3 44.4 23.4 44.4C23.8 44.4 24.2 44.4 24.5 44.3C24.8 44.2 25.2 44 25.5 43.8S26.1 43.4 26.2 43.2C26.4 43.1 26.6 42.8 27 42.4C27.4 42 27.6 41.7 27.7 41.7C28.6 42.5 29 43.5 29 44.6L29 44.6zM64.1 16.9C64.1 13.8 63 11.1 60.8 8.9L55 3.2C52.8 1 50.2 -0.1 47 -0.1C43.8 -0.1 41.2 1 39 3.2L30.9 11.3C28.7 13.5 27.6 16.1 27.6 19.3C27.6 22.5 28.8 25.2 31.1 27.5L27.6 31C25.4 28.7 22.6 27.5 19.4 27.5C16.3 27.5 13.6 28.6 11.4 30.8L3.2 39C1 41.2 -0.1 43.9 -0.1 47C-0.1 50.1 1 52.8 3.2 55L9 60.7C11.2 62.9 13.8 64 17 64C20.2 64 22.8 62.9 25 60.7L33.1 52.6C35.3 50.4 36.4 47.8 36.4 44.6C36.4 41.4 35.2 38.7 32.9 36.4L36.4 32.9C38.6 35.2 41.4 36.4 44.6 36.4C47.7 36.4 50.4 35.3 52.6 33.1L60.8 24.9C63 22.7 64.1 20.1 64.1 16.9z" />
    <glyph glyph-name="magnifier"
      unicode="&#xE27A;"
      horiz-adv-x="64" d="M41.785 36.68A27.22 27.22 0 1 1 14.465 9.37A27.37 27.37 0 0 1 41.785 36.68zM14.465 16.2A20.49 20.49 0 1 0 34.955 36.68A20.4 20.4 0 0 0 14.465 16.2zM49.535 10.29L39.535 20.07A31 31 0 0 0 31.045 11.58L41.045 1.8A5.9 5.9 0 0 1 49.535 1.8A6.25 6.25 0 0 1 49.535 10.29z" />
    <glyph glyph-name="missed"
      unicode="&#xE280;"
      horiz-adv-x="64" d="M32 0.5C14.6 0.5 0.5 14.6 0.5 32S14.6 63.5 32 63.5S63.5 49.4 63.5 32S49.4 0.5 32 0.5zM18.8 34.6V27.2H44.8V34.6H18.8z" />
    <glyph glyph-name="mobile-phone"
      unicode="&#xE28A;"
      horiz-adv-x="64" d="M13.18 0V64H50.82V0zM28.24 3.76H35.77V7.53H28.24zM47.06 60.24H16.94V11.29H47.06z" />
    <glyph glyph-name="more"
      unicode="&#xE290;"
      horiz-adv-x="64" d="M38.39 51.21H25.61V64H38.39zM25.61 25.64V38.43H38.39V25.64zM25.61 0.07V12.86H38.39V0.07z" />
    <glyph glyph-name="ellipsis"
      unicode="&#xE291;"
      horiz-adv-x="64" d="M12.82 38.39V25.61H0V38.39zM38.39 25.61H25.61V38.39H38.39zM63.96 25.61H51.18V38.39H64z" />
    <glyph glyph-name="new-site-qualification"
      unicode="&#xE29A;"
      horiz-adv-x="64" d="M63.35 28.2C62.85 30.7 62.35 34.4 60.05 36.1C58.75 37.1 57.05 37.4 55.55 37.9C54.85 38.2 54.15 38.4 53.55 38.8C51.55 36.6 48.65 35.4 45.65 35.4C43.95 35.4 42.25 35.8 40.75 36.5C40.55 35.7 40.15 35 39.65 34.3C41.65 33.9 43.55 33.2 45.55 32.5C48.05 31.8 50.25 30.4 52.05 28.5C54.85 25.3 55.65 20.9 56.45 16.7H64.05C63.95 18.9 63.75 26.1 63.35 28.2zM25.75 30C35.25 30 38.65 39.2 39.55 46.8C40.55 56.1 36.05 63.1 25.75 63.1C15.45 63.1 10.85 56.1 11.95 46.8C12.85 39.2 16.25 30 25.75 30zM45.75 27.7C43.95 29 41.55 29.5 39.45 30.2C38.55 30.5 37.55 31 36.65 31.4C33.85 28.3 29.85 26.6 25.65 26.7C21.45 26.6 17.45 28.3 14.65 31.4C13.75 30.9 12.85 30.5 11.85 30.2C9.75 29.4 7.45 29 5.55 27.7C2.45 25.4 1.55 20.3 0.95 16.8C0.45 13.9 -0.05 3.6 -0.05 0.9H51.25C51.15 3.8 50.75 13.9 50.25 16.8C49.75 20.3 48.85 25.4 45.75 27.7zM41.75 38.6C42.95 38 44.25 37.7 45.65 37.7C52.45 37.7 54.95 44.3 55.55 49.8C56.35 56.5 53.05 61.5 45.65 61.5C43.85 61.6 42.15 61.2 40.55 60.5C44.75 53.9 43.85 46.3 41.75 38.6z" />
    <glyph glyph-name="next"
      unicode="&#xE2A0;"
      horiz-adv-x="64" d="M35.08 61.09L29.08 55.27L52.36 32L29.09 8.73L35.09 2.91L64 32zM5.81 61.09L0 55.27L23.27 32L0 8.73L5.82 2.91L34.91 32z" />
    <glyph glyph-name="no-data-shadow"
      unicode="&#xE2AA;"
      horiz-adv-x="64" d="M61.105 34.09A39.24 39.24 0 0 0 31.255 0L4.895 28.18S-6.015 44.54 2.895 55.45C18.955 74.69 39.895 55.45 39.895 55.45z" />
    <glyph glyph-name="notification-check"
      unicode="&#xE2B0;"
      horiz-adv-x="64" d="M0 29.71L9.14 38.85L22.86 25.14L54.86 57.14L64 48L22.86 6.86z" />
    <glyph glyph-name="notification-failure"
      unicode="&#xE2BA;"
      horiz-adv-x="64" d="M54.88 -0.08L31.96 22.81L9.11 -0.08L-0.04 9.08L22.84 32L-0.04 54.85L9.11 64L31.96 41.12L54.88 64L64.03 54.85L41.15 32L64.04 9.08z" />
    <glyph glyph-name="notification-information"
      unicode="&#xE2C0;"
      horiz-adv-x="64" d="M36.27 8.53V42.67H23.47V34.14H27.74V8.54H19.2V0H44.8V8.53zM36.27 64H23.47V51.2H36.27z" />
    <glyph glyph-name="notification-warning"
      unicode="&#xE2CA;"
      horiz-adv-x="64" d="M28.24 0H35.77V11.29H28.24zM20.71 64L28.24 18.82H35.77L43.29 64z" />
    <glyph glyph-name="one-answers"
      unicode="&#xE2D0;"
      horiz-adv-x="64" d="M0 64V0H64V64zM11.29 52.71V11.29H52.71V52.71zM60.24 3.76H3.76V60.24H60.24z" />
    <glyph glyph-name="options"
      unicode="&#xE2DA;"
      horiz-adv-x="64" d="M0 9.41V16.94H64V9.41zM0 35.76H64V28.23H0zM0 54.59H64V47.06H0z" />
    <glyph glyph-name="paperclip"
      unicode="&#xE2E0;"
      horiz-adv-x="64" d="M57.14 21.35L32.82 45.75A8.6 8.6 0 0 1 26.51 48.38A7.880000000000001 7.880000000000001 0 0 1 20.73 46A8 8 0 0 1 18.33 40.14A8.36 8.36 0 0 1 20.99 33.89L38.15 16.7A1.41 1.41 0 0 1 39.05 16.32Q39.65 16.32 41.05 17.6T42.4 19.6A1.36 1.36 0 0 1 41.95 20.6L24.71 37.65A3.5600000000000005 3.5600000000000005 0 0 0 23.66 40.13A2.82 2.82 0 0 0 26.51 43A3.39 3.39 0 0 0 28.99 41.93L53.39 17.6A8.35 8.35 0 0 0 55.99 11.52A6.44 6.44 0 0 0 54.19 7.09A5.87 5.87 0 0 0 49.76 5.29A8.24 8.24 0 0 0 43.7 8L11.19 40.5A10.5 10.5 0 0 0 7.99 48.08A10.2 10.2 0 0 0 10.99 55.66A10.09 10.09 0 0 0 18.5 58.81A10.54 10.54 0 0 0 26.08 55.58L51.59 30.14A1.23 1.23 0 0 1 52.49 29.76Q53.17 29.76 54.49 31.04T55.77 33.04A1.23 1.23 0 0 1 55.39 33.94L29.99 59.27A15.71 15.71 0 0 1 18.55 64A15.739999999999998 15.739999999999998 0 0 1 7.29 59.34A15.18 15.18 0 0 1 2.63 48.08A15.63 15.63 0 0 1 7.36 36.74L39.99 4.16A13.589999999999998 13.589999999999998 0 0 1 49.78 0A11.28 11.28 0 0 1 57.99 3.33A11 11 0 0 1 61.37 11.51A13.16 13.16 0 0 1 57.14 21.35z" />
    <glyph glyph-name="pin"
      unicode="&#xE2EA;"
      horiz-adv-x="64" d="M52.7 33.9H11.3L22.6 49L11.3 64H52.7L41.4 48.9L52.7 33.9zM33.9 0H30.1V30.1H33.9V0z" />
    <glyph glyph-name="portal-administration"
      unicode="&#xE2F0;"
      horiz-adv-x="64" d="M24.51 46.69A20.61 20.61 0 0 1 32.61 30.36A12.17 12.17 0 0 0 28.24 29.52C18.49 29.52 14.98 39.01 14.06 46.81C12.93 56.43 17.6 63.66 28.24 63.66A18.7 18.7 0 0 0 32.68 63.1A20.62 20.62 0 0 1 24.51 46.69zM16.91 31.08A15 15 0 0 1 28.23 26.26A15.33 15.33 0 0 1 35.89 28.26A20 20 0 0 1 49.57 26.41C52.16 23.82 53 19.23 53.57 15.94C54.12 12.94 54.57 -3.48 54.57 -0.45H1.85C1.96 2.55 2.33 12.96 2.85 15.94C3.51 19.55 4.34 24.84 7.58 27.19C9.45 28.55 11.88 29 14.03 29.82A27.51 27.51 0 0 1 16.91 31.09zM60.37 48.31L57.56 48.78A12.49 12.49 0 0 1 55.95 52.66L57.51 54.85A2.1 2.1 0 0 1 57.28 57.56L56.83 58A2.11 2.11 0 0 1 54.12 58.23L51.94 56.67A12.56 12.56 0 0 1 48.07 58.29L47.6 61.1A2.13 2.13 0 0 1 45.51 62.88H44.86A2.12 2.12 0 0 1 42.77 61.1L42.3 58.29A12.520000000000001 12.520000000000001 0 0 1 38.44 56.67L36.25 58.24A2.1 2.1 0 0 1 33.55 58.02L33.1 57.56A2.11 2.11 0 0 1 32.87 54.85L34.43 52.66A12.71 12.71 0 0 1 32.82 48.78L30.02 48.31A2.12 2.12 0 0 1 28.25 46.21V45.56A2.12 2.12 0 0 1 30.02 43.47L32.82 43A12.58 12.58 0 0 1 34.44 39.12L32.88 36.93A2.1 2.1 0 0 1 33.11 34.22L33.56 33.76A2.1 2.1 0 0 1 36.26 33.53L38.45 35.1A12.65 12.65 0 0 1 42.31 33.48L42.78 30.66A2.12 2.12 0 0 1 44.87 28.89H45.52A2.12 2.12 0 0 1 47.61 30.66L48.07 33.48A12.56 12.56 0 0 1 51.94 35.1L54.13 33.53A2.1 2.1 0 0 1 56.84 33.76L57.29 34.22A2.11 2.11 0 0 1 57.52 36.93L55.96 39.12A12.58 12.58 0 0 1 57.57 43L60.38 43.47A2.12 2.12 0 0 1 62.15 45.56V46.21A2.13 2.13 0 0 1 60.37 48.31zM45.19 39.52A6.37 6.37 0 1 0 51.55 45.89A6.37 6.37 0 0 0 45.19 39.52z" />
    <glyph glyph-name="previous"
      unicode="&#xE2FA;"
      horiz-adv-x="64" d="M34.91 55.27L28.91 61.09L0 32L28.92 2.91L34.92 8.73L11.64 32zM64 55.27L58.18 61.09L29.09 32L58.18 2.91L64 8.73L40.73 32z" />
    <glyph glyph-name="print"
      unicode="&#xE300;"
      horiz-adv-x="64" d="M52.71 18.82V0H11.29V18.82H0V48.94H64V18.82zM15.06 3.76H48.94V30.12H15.06zM56.47 45.18H48.94V41.42H56.47zM18.82 22.59H45.18V18.83H18.82zM37.65 11.29H18.82V15.06H37.65zM48.94 60.24H15.06V52.71H11.29V64H52.71V52.71H48.94z" />
    <glyph glyph-name="file-code"
      unicode="&#xE301;"
      horiz-adv-x="64" d="M25.15 35.43L23.33 36.79A1.14 1.14 0 0 1 21.72 36.58L13.65 25.82A1.18 1.18 0 0 1 13.65 24.46L21.72 13.71A1.14 1.14 0 0 1 23.33 13.5L25.15 14.86A1.14 1.14 0 0 1 25.36 16.47L18.86 25.15L25.36 33.83A1.14 1.14 0 0 1 25.15 35.43zM57 50.43L45.86 61.57A9.579999999999998 9.579999999999998 0 0 1 40 64H8A3.4300000000000006 3.4300000000000006 0 0 1 4.57 60.57V3.43A3.4300000000000006 3.4300000000000006 0 0 1 8 0H56A3.4300000000000006 3.4300000000000006 0 0 1 59.43 3.43V44.57A9.579999999999998 9.579999999999998 0 0 1 57 50.43zM42.61 58.36L53.79 47.18A4.54 4.54 0 0 0 54.58 45.71H41.15V59.14H41.15A4.56 4.56 0 0 0 42.61 58.36zM54.86 4.57H9.15V59.43H36.57V44.57A3.4300000000000006 3.4300000000000006 0 0 1 40 41.14H54.86zM38.64 33.82L45.14 25.14L38.64 16.46A1.14 1.14 0 0 1 38.85 14.85L40.67 13.49A1.14 1.14 0 0 1 42.28 13.7L50.35 24.45A1.18 1.18 0 0 1 50.35 25.81L42.29 36.57A1.14 1.14 0 0 1 40.68 36.78L38.86 35.42A1.14 1.14 0 0 1 38.64 33.82zM35.79 40.93L33.54 41.29A1.13 1.13 0 0 1 32.22 40.36L27.29 10.68A1.13 1.13 0 0 1 28.22 9.36L30.47 9A1.13 1.13 0 0 1 31.79 9.93L36.72 39.61A1.13 1.13 0 0 1 35.79 40.93z" />
    <glyph glyph-name="file-excel"
      unicode="&#xE302;"
      horiz-adv-x="64" d="M34.15 32.75H36.79L33.11 27.07C32.68 26.39 32.36 25.86 32.36 25.89H32.29A1.13 1.13 0 0 1 32.11 26.25A4.8 4.8 0 0 1 31.5 27.07L27.71 32.75H30.43V36.57H20.08V32.75H22.51L29.25 23L22.33 12.93H19.9V9.14H29.9V12.93H27.25L30.93 18.68C31.36 19.36 31.57 19.89 31.68 19.89H31.75A1.15 1.15 0 0 1 31.93 19.53A8.05 8.05 0 0 1 32.54 18.67L36.36 12.92H33.64V9.13H44V12.93H41.61L34.75 22.68L41.75 32.75H44.14V36.57H34.14zM57 50.43L45.86 61.57A9.579999999999998 9.579999999999998 0 0 1 40 64H8A3.4300000000000006 3.4300000000000006 0 0 1 4.57 60.57V3.43A3.4300000000000006 3.4300000000000006 0 0 1 8 0H56A3.4300000000000006 3.4300000000000006 0 0 1 59.43 3.43V44.57A9.579999999999998 9.579999999999998 0 0 1 57 50.43zM42.61 58.36L53.79 47.18A4.54 4.54 0 0 0 54.58 45.71H41.15V59.14H41.15A4.56 4.56 0 0 0 42.61 58.36zM54.86 4.57H9.15V59.43H36.57V44.57A3.4300000000000006 3.4300000000000006 0 0 1 40 41.14H54.86z" />
    <glyph glyph-name="file-image"
      unicode="&#xE303;"
      horiz-adv-x="64" d="M57 50.43L45.86 61.57A9.579999999999998 9.579999999999998 0 0 1 40 64H8A3.4300000000000006 3.4300000000000006 0 0 1 4.57 60.57V3.43A3.4300000000000006 3.4300000000000006 0 0 1 8 0H56A3.4300000000000006 3.4300000000000006 0 0 1 59.43 3.43V44.57A9.579999999999998 9.579999999999998 0 0 1 57 50.43zM42.61 58.36L53.79 47.18A4.54 4.54 0 0 0 54.58 45.71H41.15V59.14H41.15A4.56 4.56 0 0 0 42.61 58.36zM54.86 4.57H9.15V59.43H36.57V44.57A3.4300000000000006 3.4300000000000006 0 0 1 40 41.14H54.86zM25.14 18.29L20.57 22.86L13.72 16L13.72 9.14L50.29 9.14L50.29 20.57L38.86 32L25.14 18.29zM13.71 34.29C13.71 30.5013266161608 16.7813266161608 27.43 20.57 27.43C24.3586733838392 27.43 27.43 30.5013266161608 27.43 34.29C27.43 38.0786733838392 24.3586733838392 41.15 20.57 41.15C16.7813266161608 41.15 13.71 38.0786733838392 13.71 34.29z" />
    <glyph glyph-name="file-pdf"
      unicode="&#xE304;"
      horiz-adv-x="64" d="M57 50.43L45.86 61.57A9.579999999999998 9.579999999999998 0 0 1 40 64H8A3.4300000000000006 3.4300000000000006 0 0 1 4.57 60.57V3.43A3.4300000000000006 3.4300000000000006 0 0 1 8 0H56A3.4300000000000006 3.4300000000000006 0 0 1 59.43 3.43V44.57A9.579999999999998 9.579999999999998 0 0 1 57 50.43zM42.61 58.36L53.79 47.18A4.54 4.54 0 0 0 54.58 45.71H41.15V59.14H41.15A4.56 4.56 0 0 0 42.61 58.36zM54.86 4.57H9.15V59.43H36.57V44.57A3.4300000000000006 3.4300000000000006 0 0 1 40 41.14H54.86zM36.5 25.75H36.5C34.39 27.46 32.5 30.5 31.29 34.25A41.85 41.85 0 0 1 31.79 41.11V42.17A0.78 0.78 0 0 1 31.79 42.46A0.6999999999999998 0.6999999999999998 0 0 1 31.93 42.75A2.8400000000000003 2.8400000000000003 0 0 1 31.61 45.18A1.5200000000000002 1.5200000000000002 0 0 1 30.36 45.71H29.57C28.86 45.71 28.32 45.18 28.07 44.28C27.43 41.92 27.78 37.92 28.93 34.03A54.660000000000004 54.660000000000004 0 0 0 25.22 24.67C23.79 21.78 22.5 19.46 21.4 17.67A0.27 0.27 0 0 1 21.33 17.81A0.59 0.59 0 0 1 20.51 18.02C16.08 15.7 14.15 12.95 13.79 11.3A1.49 1.49 0 0 1 14 10C14.07 9.93 14.11 9.86 14.21 9.82L15.07 9.39A2 2 0 0 1 16.07 9.14C18.21 9.14 21.07 12.21 24.71 18.5A67.87 67.87 0 0 0 38.71 21.5A21.38 21.38 0 0 1 47.46 18.89C49.35 18.89 49.89 19.61 50 20.25V20.25S50.07 20.36 50.11 20.39A1.8099999999999998 1.8099999999999998 0 0 1 50 22.25C49.11 23.71 46.07 24 43.68 24A35.33 35.33 0 0 1 39.5 23.75A24.26 24.26 0 0 0 36.5 25.75zM15.93 11.07A17 17 0 0 0 20.82 16.71C18.54 13.11 17 11.57 15.93 11.07zM30.15 43.93H30.15S30.15 44 30.15 44.07A2.06 2.06 0 0 0 30.61 42.79C30.61 42.72 30.61 42.65 30.68 42.61A1 1 0 0 1 30.54 42.32C30.47 41.89 30.36 41.39 30.29 40.78S30.15 39.78 30.04 39.21A11.13 11.13 0 0 0 30.15 43.93zM25.72 20.32C26.25 21.32 26.79 22.32 27.33 23.32A46 46 0 0 1 30.33 30.32A19 19 0 0 1 34.83 24C35.15 23.71 35.51 23.47 35.83 23.18A54.589999999999996 54.589999999999996 0 0 1 25.72 20.32zM48.79 20.89H48.79S48.86 20.82 48.86 20.78A2.83 2.83 0 0 0 48.22 20.78A14.26 14.26 0 0 0 43.79 21.78C47.68 21.75 48.61 21.07 48.79 20.89z" />
    <glyph glyph-name="file-powerpoint"
      unicode="&#xE305;"
      horiz-adv-x="64" d="M37.22 35.89A13 13 0 0 1 32.58 36.57H19.43V32.75H22.71V12.93H19.43V9.14H31.11V12.93H27.79V18.93H32.68A12.32 12.32 0 0 1 36.89 19.46C40.1 20.57 42.1 23.89 42.1 27.78S40.18 34.64 37.22 35.89zM34.83 23.47A6.47 6.47 0 0 0 32.04 22.94H27.79V32.5H32.08A5.9 5.9 0 0 0 35.08 31.86A4.49 4.49 0 0 0 37.08 27.75C37 25.75 36.32 24.21 34.83 23.47zM57 50.43L45.86 61.57A9.579999999999998 9.579999999999998 0 0 1 40 64H8A3.4300000000000006 3.4300000000000006 0 0 1 4.57 60.57V3.43A3.4300000000000006 3.4300000000000006 0 0 1 8 0H56A3.4300000000000006 3.4300000000000006 0 0 1 59.43 3.43V44.57A9.579999999999998 9.579999999999998 0 0 1 57 50.43zM42.61 58.36L53.79 47.18A4.54 4.54 0 0 0 54.58 45.71H41.15V59.14H41.15A4.56 4.56 0 0 0 42.61 58.36zM54.86 4.57H9.15V59.43H36.57V44.57A3.4300000000000006 3.4300000000000006 0 0 1 40 41.14H54.86z" />
    <glyph glyph-name="file-text"
      unicode="&#xE306;"
      horiz-adv-x="64" d="M57 50.43A9.579999999999998 9.579999999999998 0 0 0 59.43 44.57V3.43A3.4300000000000006 3.4300000000000006 0 0 0 56 0H8A3.4300000000000006 3.4300000000000006 0 0 0 4.57 3.43V60.57A3.4300000000000006 3.4300000000000006 0 0 0 8 64H40A9.579999999999998 9.579999999999998 0 0 0 45.86 61.57zM41.15 59.14V45.71H54.57A4.55 4.55 0 0 1 53.78 47.18L42.61 58.36A4.56 4.56 0 0 1 41.14 59.15zM54.86 4.57V41.14H40A3.4300000000000006 3.4300000000000006 0 0 0 36.57 44.57V59.43H9.15V4.57zM18.29 35.43A1.13 1.13 0 0 0 19.43 36.57H44.57A1.13 1.13 0 0 0 45.71 35.43V33.14A1.13 1.13 0 0 0 44.57 32H19.43A1.13 1.13 0 0 0 18.29 33.14zM44.58 27.43A1.13 1.13 0 0 0 45.72 26.29V24A1.13 1.13 0 0 0 44.58 22.86H19.43A1.13 1.13 0 0 0 18.29 24V26.29A1.13 1.13 0 0 0 19.43 27.43zM44.58 18.29A1.13 1.13 0 0 0 45.72 17.15V14.86A1.13 1.13 0 0 0 44.58 13.72H19.43A1.13 1.13 0 0 0 18.29 14.86V17.14A1.13 1.13 0 0 0 19.43 18.28z" />
    <glyph glyph-name="file-word"
      unicode="&#xE307;"
      horiz-adv-x="64" d="M39.82 15.46L39.75 14.71H39.61A6.260000000000001 6.260000000000001 0 0 1 39.5 15.46C39.39 15.92 39.32 16.53 39.18 17.1L34 36.57H30L24.82 17.11C24.68 16.54 24.64 15.93 24.53 15.47L24.39 14.72H24.25L24.18 15.47A10.37 10.37 0 0 1 23.93 17.11L20.39 32.75H23.6V36.57H12.9V32.75H15.4L21.26 9.14H26.94L31.5 26.46A8.4 8.4 0 0 1 31.86 28.1A6.72 6.72 0 0 1 31.93 28.96H32.08L32.19 28.1C32.3 27.6 32.33 27.03 32.51 26.46L37.08 9.14H42.76L48.62 32.75H51.12V36.57H40.39V32.75H43.6L40.07 17.11A9.88 9.88 0 0 1 39.82 15.46zM57 50.43L45.86 61.57A9.579999999999998 9.579999999999998 0 0 1 40 64H8A3.4300000000000006 3.4300000000000006 0 0 1 4.57 60.57V3.43A3.4300000000000006 3.4300000000000006 0 0 1 8 0H56A3.4300000000000006 3.4300000000000006 0 0 1 59.43 3.43V44.57A9.579999999999998 9.579999999999998 0 0 1 57 50.43zM42.61 58.36L53.79 47.18A4.54 4.54 0 0 0 54.58 45.71H41.15V59.14H41.15A4.56 4.56 0 0 0 42.61 58.36zM54.86 4.57H9.15V59.43H36.57V44.57A3.4300000000000006 3.4300000000000006 0 0 1 40 41.14H54.86z" />
    <glyph glyph-name="file-alt"
      unicode="&#xE308;"
      horiz-adv-x="64" d="M58.71 47.71A8.31 8.31 0 0 1 57 50.43L45.86 61.57A8.3 8.3 0 0 1 43.14 63.29A8.25 8.25 0 0 1 40 64H8A3.31 3.31 0 0 1 5.57 63A3.3 3.3 0 0 1 4.57 60.57V3.43A3.4100000000000006 3.4100000000000006 0 0 1 8 0H56A3.4100000000000006 3.4100000000000006 0 0 1 59.43 3.43V44.57A8.24 8.24 0 0 1 58.71 47.71zM41.14 59.14A3.9099999999999997 3.9099999999999997 0 0 0 42.6 58.35L53.79 47.18A3.9099999999999997 3.9099999999999997 0 0 0 54.58 45.72H41.14zM54.86 4.57H9.14V59.43H36.57V44.57A3.4100000000000006 3.4100000000000006 0 0 1 40 41.14H54.86z" />
    <glyph glyph-name="create-trans"
      unicode="&#xE309;"
      horiz-adv-x="64" d="M61.41 32H52V41.41A2.59 2.59 0 0 1 49.41 44H45.59A2.59 2.59 0 0 1 43 41.41V32H33.59A2.59 2.59 0 0 1 31 29.41V25.6A2.59 2.59 0 0 1 33.59 23H43V13.59A2.59 2.59 0 0 1 45.59 11H49.4A2.59 2.59 0 0 1 52 13.59V23H61.41A2.59 2.59 0 0 1 64 25.59V29.41A2.59 2.59 0 0 1 61.41 32zM44.21 5.9A6.46 6.46 0 0 0 37.89 12.49S37.89 12.56 37.89 12.59V18.45H32.23A6.46 6.46 0 0 0 26 25.09V30.09A6.45 6.45 0 0 0 32.27 36.58H37.9V42.58A6.46 6.46 0 0 0 44.17 49.22H46.45V64H0V0H46.44V5.9z" />
    <glyph glyph-name="proficiency-mode"
      unicode="&#xE30A;"
      horiz-adv-x="64" d="M18.29 19.86C15.78 19.86 15.44 21.01 15.44 21.01L5.64 7.52L13.5 6.76L17.85 0.35S26.92 15.1 26.92 15C22.22 15.09 24.08 19.74 18.29 19.86zM48.43 20.27C41.26 19.54 42.72 17.79 41.08 16.44A5.13 5.13 0 0 0 36.83 14.85L47.9 0L50.63 6.9L58.36 7.54zM40.08 22.45A6.05 6.05 0 0 0 45.5 25.5C47.89 25.5 49.1 26.72 49.13 29.06A5.86 5.86 0 0 0 52.25 34.35C54.3 35.55 54.75 37.16 53.58 39.21A5.79 5.79 0 0 0 53.58 45.33C54.75 47.33 54.31 48.98 52.25 50.18A5.89 5.89 0 0 0 49.13 55.49C49.1 57.81 47.89 59 45.5 59A6.07 6.07 0 0 0 40.08 62.06Q38.24 65.06 35.08 63.37A6.14 6.14 0 0 0 28.83 63.37Q25.71 65.08 23.83 62.07A6.05 6.05 0 0 0 18.5 59C16.12 59 14.9 57.78 14.87 55.45A5.89 5.89 0 0 0 11.74 50.14C9.69 48.94 9.24 47.33 10.41 45.29A5.76 5.76 0 0 0 10.41 39.17Q8.65 36.1 11.74 34.31A5.86 5.86 0 0 0 14.87 29.02Q14.92 25.5 18.5 25.46A6 6 0 0 0 23.92 22.4Q25.76 19.4 28.92 21.1A6.2 6.2 0 0 0 35.17 21.1C37.21 20 38.86 20.43 40.08 22.44zM32 37.65L24.47 33.88L27 40L20.7 45.18H28.23L32 52.71L35.77 45.18H43.3L37 40L39.58 33.88z" />
    <glyph glyph-name="questionmark"
      unicode="&#xE31A;"
      horiz-adv-x="64" d="M31.2 14.4C27 14.4 23.8 11.6 23.8 7.4C23.8 2.8 27 0 30.8 0C35 0 38.2 2.5 38.5 7C38.6 11.2 35.4 14 31.2 14.4zM46.7 59.4C42.1 62.5 36.7 64.1 31.2 64C27 64.1 22.8 63 19.2 60.8C14.3 57.6 11.5 52 11.2 44.3H23.5C23.5 46.7 24.3 49 25.6 51C27 53.1 29.1 54.2 32.3 54.2S37.6 53.5 39 51.7C40.1 50 40.7 48 40.7 46C40.5 44.2 39.8 42.5 38.6 41.1C37.9 40.2 37 39.4 36.1 38.6C36.1 38.6 29.8 34.4 27 31.2C25.2 29.4 25.2 26.3 25.2 22.4C25.2 22.1 25.2 21.4 26.2 21.4H35.3C36.3 21.4 36.3 22.1 36.3 22.4C36.3 23.8 36.6 24.5 36.6 25.6C37.1 27.4 38.4 29 40.1 29.8L43.3 31.9C45.6 33.5 47.7 35.4 49.6 37.5C51.6 40 52.7 43.1 52.8 46.3C53 52.4 50.9 56.6 46.7 59.4z" />
    <glyph glyph-name="reference-material"
      unicode="&#xE320;"
      horiz-adv-x="64" d="M64 7.53H0V48.31H64zM0 56.47H26.11V52.39H0z" />
    <glyph glyph-name="reports"
      unicode="&#xE32A;"
      horiz-adv-x="64" d="M33.88 64L33.88 41.41L56.47 41.41L33.88 64zM30.12 37.65V64H7.53V0H56.47V37.65H30.12z" />
    <glyph glyph-name="report-confirm"
      unicode="&#xE32B;"
      horiz-adv-x="64" d="M42.9 51.8L30.8 64L30.8 41.4L32.6 41.4zM15.4 11.4L19 27.8L28.9 37.7L27 37.7L27 64L4.4 64L4.4 0L53.4 0L53.4 36.6L31.8 15zM21.9 26.7L19.4 15.4L30.7 17.9L53.9 41.1L45.1 50L21.9 26.7zM47.5 41.3L29.9 23.7L27.7 25.9L45.3 43.5L47.5 41.3zM53.3 55.6C52 55.6 50.8 55.2 49.8 54.5C49.7 54.4 49.6 54.4 49.6 54.3L47 51.8L55.8 43L58.3 45.5C58.4 45.6 58.4 45.7 58.5 45.7C59.2 46.7 59.6 47.9 59.6 49.2C59.6 52.8 56.8 55.6 53.3 55.6z" />
    <glyph glyph-name="row-checkmark"
      unicode="&#xE330;"
      horiz-adv-x="64" d="M64 48.37L24 8.37L0 32.37L7.27 39.64L24 22.91L56.73 55.64z" />
    <glyph glyph-name="row-close"
      unicode="&#xE33A;"
      horiz-adv-x="64" d="M64 8.73L55.27 0L32 23.27L8.73 0L0 8.73L23.27 32L0 55.27L8.73 64L32 40.73L55.27 64L64 55.27L40.73 32z" />
    <glyph glyph-name="row-triangle"
      unicode="&#xE340;"
      horiz-adv-x="64" d="M32 59.7L0 4.3H64L32 59.7zM32 36.9L44 16.1H20L32 36.9z" />
    <glyph glyph-name="sample-mode"
      unicode="&#xE34A;"
      horiz-adv-x="64" d="M5.38 55.92A32 32 0 0 1 5.38 8.07C20.54 27.57 20.54 36.42 5.38 55.92zM26.62 64A31.840000000000003 31.840000000000003 0 0 1 5.83 56.31C26.2 34.1 33.16 32.13 58.62 32C33.19 31.86 26.23 29.9 5.86 7.69A32 32 0 1 1 26.62 64z" />
    <glyph glyph-name="site-qualification-form"
      unicode="&#xE350;"
      horiz-adv-x="64" d="M45.52 32.6A13.46 13.46 0 0 0 51.99 28.6C54.75 25.4 55.62 21 56.4 16.79H64C63.92 18.9 63.67 26.14 63.29 28.22C62.83 30.74 62.29 34.43 59.99 36.07C58.68 37.02 56.99 37.33 55.5 37.9A18.66 18.66 0 0 0 53.5 38.77A10.5 10.5 0 0 0 45.6 35.41A10.85 10.85 0 0 0 40.66 36.55A5.839999999999999 5.839999999999999 0 0 0 39.58 34.37C41.6 34 43.51 33.24 45.52 32.6zM0 0.86C0 3.57 0.46 13.86 1 16.78C1.64 20.29 2.45 25.43 5.6 27.71C7.42 29.03 9.78 29.46 11.86 30.26A27 27 0 0 1 14.64 31.47A14.630000000000003 14.630000000000003 0 0 1 25.64 26.79A14.630000000000003 14.630000000000003 0 0 1 36.64 31.47A26 26 0 0 1 39.42 30.26C41.5 29.46 43.86 29.03 45.68 27.71C48.83 25.42 49.68 20.29 50.28 16.78C50.81 13.89 51.17 3.78 51.28 0.86zM25.65 30C16.17 30 12.76 39.23 11.87 46.81C10.76 56.11 15.31 63.14 25.65 63.14S40.53 56.14 39.43 46.78C38.53 39.19 35.12 30 25.65 30zM41.72 38.61A8.42 8.42 0 0 1 45.6 37.72C52.4 37.72 54.85 44.34 55.49 49.78C56.27 56.48 53 61.52 45.6 61.52A11.69 11.69 0 0 1 40.51 60.52C44.7 53.88 43.81 46.27 41.72 38.61z" />
    <glyph glyph-name="spirometry-amount-checkmark"
      unicode="&#xE35A;"
      horiz-adv-x="64" d="M32 0.4C14.6 0.4 0.4 14.6 0.4 32S14.6 63.6 32 63.6S63.6 49.4 63.6 32S49.4 0.4 32 0.4zM44.5 45.6L28.7 29.8L20.8 37.7L15.5 32.4L23.4 24.5L28.7 19.2L34 24.5L49.8 40.3L44.5 45.6z" />
    <glyph glyph-name="spirometry-amount-dashedline"
      unicode="&#xE360;"
      horiz-adv-x="64" d="M56.69 0V3.66H64V0zM45.69 3.66H53V0H45.71zM34.69 3.66H42V0H34.74zM21.89 3.66H31.03V0H21.94zM11 1.72V5.83A17.89 17.89 0 0 1 18.31 3.83V0.15A26 26 0 0 0 11 1.72zM7.31 3.62C4.65 5.46 3.31 7.31 0 7.31C0.11 7.31 0 11 0 11A10.21 10.21 0 0 0 7.31 8.54z" />
    <glyph glyph-name="spirometry-first-bestresult"
      unicode="&#xE36A;"
      horiz-adv-x="64" d="M58.355 35.76A28.24 28.24 0 1 1 9.045 17L5.645 0L28.235 7.56H31.995L54.585 0L51.185 17A28.069999999999997 28.069999999999997 0 0 1 58.355 35.76zM35.765 22.65H24.465V26.42H28.225V41.47H24.465V45.17C28.225 45.17 28.225 49 28.225 49H31.985V26.42H35.745z" />
    <glyph glyph-name="spirometry-running-simple"
      unicode="&#xE370;"
      horiz-adv-x="64" d="M26.95 53.3C13.35 50.5 4.55 37.2 7.35 23.6S23.45 1.2 37.05 4C48.15 6.3 56.35 15.7 57.15 27H60.55C59.65 11.3 46.25 -0.8 30.45 0.1C14.65 1 2.65 14.5 3.45 30.2C4.25 43.4 13.95 54.4 26.95 56.7V63.9L40.35 57.2L43.55 55.5L26.95 47.1V53.3z" />
    <glyph glyph-name="spirometry-running"
      unicode="&#xE37A;"
      horiz-adv-x="64" d="M42.7 25.9L37.6 21.2L24.8 33L29.9 37.7L37.6 30.6L54 45.8L59.1 41.1L42.7 25.9zM26.6 53.2C12 50.4 2.5 37.2 5.5 23.6S22.8 1.3 37.5 4.1C49.5 6.4 58.3 15.8 59.1 27H62.7C61.7 11.3 47.2 -0.7 30.3 0.2C13.4 1.1 0.4 14.5 1.3 30.2C2.1 43.4 12.6 54.3 26.6 56.6V63.8L41.1 57.1L44.6 55.4L26.7 47.1V53.2z" />
    <glyph glyph-name="spirometry-second-bestresult"
      unicode="&#xE380;"
      horiz-adv-x="64" d="M58.34 35.78A28.220000000000002 28.220000000000002 0 1 1 9.06 17L5.66 0L28.24 7.53H32L54.58 0L51.18 17A28.09 28.09 0 0 1 58.34 35.78zM23.89 26.36H39.53V22.6H20.71V26.37A2.88 2.88 0 0 0 21.71 28.86C22.89 29.77 23.71 30.48 24.87 31.31S27.31 32.87 28.69 33.76S31.34 35.49 32.55 36.31A9.17 9.17 0 0 1 34.75 38.31A4.4 4.4 0 0 1 35.58 41A4.76 4.76 0 0 1 34.2 44.66A5 5 0 0 1 30.62 46A6.080000000000001 6.080000000000001 0 0 1 26.33 44.54C25.27 43.54 24.47 43.14 24.47 41.45H20.71A13.69 13.69 0 0 0 23.71 46.66A9.85 9.85 0 0 0 30.63 48.98A10.17 10.17 0 0 0 34.46 48.31A8 8 0 0 0 37.25 46.51A7.759999999999999 7.759999999999999 0 0 0 39.53 41A7.340000000000001 7.340000000000001 0 0 0 39.17 38.6A6.22 6.22 0 0 0 38.17 36.72A9.49 9.49 0 0 0 36.63 35.18A16.69 16.69 0 0 0 34.73 33.82C33.46 32.95 32.13 32.13 30.73 31.33S25.2 27.47 23.94 26.47C23.92 26.41 23.88 26.4 23.89 26.36z" />
    <glyph glyph-name="spirometry-value"
      unicode="&#xE38A;"
      horiz-adv-x="64" d="M56.47 60.24L56.47 0H7.53V60.24H22.58V52.71H41.41V60.24zM26.35 56.47V64H37.64V56.47zM29.34 14.75L24 20.12L16 28.12L21.32 33.43L29.32 25.43L42.62 38.75L48 33.43L34.66 20.12z" />
    <glyph glyph-name="spirometry-view-mode"
      unicode="&#xE390;"
      horiz-adv-x="64" d="M30.12 33.88V41.41H64V33.88zM30.12 52.7H64V45.17H30.12zM30.12 64H64V56.47H30.12zM0 64H26.35V33.88H0zM64 0H0V30.12H64z" />
    <glyph glyph-name="study-name"
      unicode="&#xE39A;"
      horiz-adv-x="64" d="M1.88 0V64H62.12V0zM54.59 48.94H9.41V45.18H54.59zM54.59 37.65H9.41V33.89H54.59zM54.59 26.36H9.41V22.6H54.59zM54.59 15.07H9.41V11.31H54.59z" />
    <glyph glyph-name="supply-box"
      unicode="&#xE3A0;"
      horiz-adv-x="64" d="M0 61H64V50H0V61zM4.6 3H59.4V47H4.6V3zM20.6 41.4H43.4V37.6H20.6V41.4zM20.6 41.4H43.4V37.6H20.6V41.4z" />
    <glyph glyph-name="supply-ordering"
      unicode="&#xE3AA;"
      horiz-adv-x="64" d="M20.61 41.41H43.37V37.56H20.61V41.41zM13.15 16.94A5.650000000000001 5.650000000000001 0 1 1 18.8 11.29A5.650000000000001 5.650000000000001 0 0 1 13.15 16.94zM60.21 50.83H45.15V58.36H-0.01V13.19H3.99A9.41 9.41 0 1 0 22.43 13.19H41.57A9.41 9.41 0 1 0 60.01 13.19H64.01V39.54zM45.15 35.77V47.06H56.44L60.2 35.77zM50.8 16.95A5.650000000000001 5.650000000000001 0 1 1 56.45 11.3A5.650000000000001 5.650000000000001 0 0 1 50.8 16.95H50.8z" />
    <glyph glyph-name="tile-view"
      unicode="&#xE3B0;"
      horiz-adv-x="64" d="M0 64H20V44H0V64zM44 64H64V44H44V64zM22 64H42V44H22V64zM0 20H20V0H0V20zM0 42H20V22H0V42zM22 42H42V22H22V42zM22 20H42V0H22V20zM44 20H64V0H44V20zM44 42H64V22H44V42z" />
    <glyph glyph-name="training-certificates"
      unicode="&#xE3BA;"
      horiz-adv-x="64" d="M53.28 15.93L56.47 0H52.7L49.7 15.13C49.45 15.13 49.21 15.05 48.96 15.05S48.47 15.11 48.22 15.13L45.17 0H41.41L44.6 15.93A11.29 11.29 0 1 0 53.28 15.93zM48.94 33.93A7.53 7.53 0 1 1 56.47 26.4A7.53 7.53 0 0 1 48.94 33.88zM30.12 28.24A16.91 16.91 0 0 1 37.46 14.3L33.88 0H7.53V64H56.47V42.32A16.93 16.93 0 0 1 30.12 28.24z" />
    <glyph glyph-name="training-mode"
      unicode="&#xE3C0;"
      horiz-adv-x="64" d="M64 43.29V46.21L33.88 62.12H30.12L0 46.23V43.3L30.12 24.47H33.88L56.47 38.59V9.41H52.71V1.88H64V9.41H60.24V40.94zM52.71 28.24L33.88 16.94H30.12L11.29 28.24V20.71L30.12 9.41H33.88L52.71 20.71z" />
    <glyph glyph-name="user-management-study-permission"
      unicode="&#xE3CA;"
      horiz-adv-x="64" d="M58.245 45.1V37.65H62.045V33.89H58.245V30.13H62.045V26.37H54.485V45.24A9.42 9.42 0 1 0 58.245 45.1zM56.795 59.8A5.21 5.21 0 1 1 62.045 54.59A5.22 5.22 0 0 1 56.795 59.8zM28.305 29.91C18.565 29.91 15.065 39.39 14.145 47.18C13.045 56.78 17.685 64 28.305 64S43.595 56.78 42.475 47.18C41.555 39.39 38.045 29.91 28.305 29.91zM16.995 31.47A15 15 0 0 1 28.305 26.67A15 15 0 0 1 39.615 31.48A28.649999999999995 28.649999999999995 0 0 1 42.475 30.23C44.615 29.41 47.045 28.97 48.915 27.61C52.145 25.26 52.985 20 53.645 16.37C54.185 13.37 54.555 3.02 54.645 0H1.955C2.045 3 2.435 13.39 2.975 16.37C3.635 20 4.465 25.26 7.715 27.6C9.575 29 12.045 29.41 14.145 30.23A29.730000000000004 29.730000000000004 0 0 1 16.995 31.47z" />
    <glyph glyph-name="user-name"
      unicode="&#xE3D0;"
      horiz-adv-x="64" d="M5.67 0C5.67 2.78 6.14 13.38 6.67 16.36C7.33 19.96 8.16 25.24 11.4 27.59C13.27 28.95 15.69 29.39 17.83 30.21A27.719999999999995 27.719999999999995 0 0 1 20.68 31.45A15 15 0 0 1 32.01 26.68A15 15 0 0 1 43.32 31.48A26.68 26.68 0 0 1 46.17 30.24C48.31 29.42 50.73 28.98 52.6 27.62C55.84 25.27 56.67 19.99 57.33 16.39C57.87 13.39 58.24 3.06 58.33 0.03zM32.01 29.93C22.28 29.93 18.77 39.41 17.86 47.19C16.72 56.78 21.39 64 32.01 64S47.29 56.78 46.16 47.19C45.25 39.4 41.74 29.93 32.01 29.93z" />
    <glyph glyph-name="world"
      unicode="&#xE3DA;"
      horiz-adv-x="64" d="M32 64C14.3 64 0 49.7 0 32S14.3 0 32 0S64 14.3 64 32S49.7 64 32 64zM59.9 33H47.5C47.4 37.4 46.5 41.8 45 45.9C47.8 47 50.4 48.6 52.7 50.4C57.1 45.6 59.6 39.5 59.9 33zM30.9 4.1C27.4 7.2 24.5 10.9 22.5 15.1C25.3 15.9 28.1 16.4 31 16.5V4.1L30.9 4.1L30.9 4.1zM33.2 59.9C37.2 56.5 40.3 52.1 42.4 47.3C39.4 46.2 36.3 45.6 33.1 45.5V59.9H33.2L33.2 59.9zM36.5 59.5C42.1 58.6 47.3 56 51.4 52C49.2 50.3 46.8 48.9 44.3 47.9C42.5 52.2 39.9 56.2 36.5 59.5L36.5 59.5zM31 59.9V45.5C27.8 45.6 24.7 46.3 21.7 47.3C23.7 52.2 26.8 56.5 30.8 59.9H31zM19.8 47.9C17.2 48.9 14.8 50.3 12.7 52C16.8 55.9 21.9 58.5 27.5 59.5C24.1 56.2 21.5 52.2 19.8 47.9L19.8 47.9zM20.9 45.3C24.1 44.1 27.5 43.5 31 43.4V33H18.6C18.7 37.2 19.4 41.4 20.9 45.3L20.9 45.3zM31 31V18.6C27.8 18.5 24.6 17.9 21.6 16.9C19.8 21.4 18.8 26.1 18.6 31L31 31zM27.5 4.5C22.5 5.3 17.8 7.5 13.9 10.8C16 12.2 18.2 13.4 20.5 14.3C22.3 10.7 24.6 7.4 27.5 4.5L27.5 4.5zM33 4.1V16.5C35.9 16.4 38.7 15.9 41.5 15.1C39.5 10.9 36.6 7.2 33.1 4.1L33 4.1L33 4.1zM43.5 14.3C45.8 13.4 48 12.2 50.1 10.8C46.2 7.5 41.6 5.3 36.6 4.5C39.4 7.4 41.8 10.7 43.5 14.3L43.5 14.3zM42.5 16.9C39.4 17.9 36.2 18.5 33 18.6V31H45.4C45.2 26.2 44.2 21.4 42.5 16.9L42.5 16.9zM33 33V43.4C36.4 43.5 39.9 44.2 43.1 45.3C44.5 41.4 45.3 37.2 45.4 33H33zM11.2 50.4C13.6 48.5 16.2 47 19 45.9C17.5 41.7 16.7 37.4 16.5 33H4.1C4.4 39.5 6.9 45.6 11.2 50.4zM4.1 31H16.5C16.6 26 17.7 21 19.6 16.3C17 15.3 14.6 13.9 12.4 12.3C7.3 17.2 4.4 23.9 4.1 31zM51.6 12.3C49.4 13.9 46.9 15.3 44.4 16.3C46.3 21 47.4 26 47.5 31H59.9C59.6 23.9 56.7 17.2 51.6 12.3z" />
    <glyph glyph-name="remote-viewer"
      unicode="&#xE3E0;"
      horiz-adv-x="64" d="M59.73 26.67V54.4A1.08 1.08 0 0 1 58.66 55.47H5.33A1.08 1.08 0 0 1 4.26 54.4V26.67A1.08 1.08 0 0 1 5.33 25.6H58.66A1.08 1.08 0 0 1 59.73 26.67zM64 54.4V18.13A5.35 5.35 0 0 0 58.67 12.8H40.53A7 7 0 0 1 41.06 10.22A24.94 24.94 0 0 1 42.13 7.85A3.8500000000000005 3.8500000000000005 0 0 0 42.66 6.4A2.16 2.16 0 0 0 40.53 4.27H23.47A2.16 2.16 0 0 0 21.34 6.4A3.68 3.68 0 0 0 21.87 7.87A23.48 23.48 0 0 1 22.94 10.2A7 7 0 0 1 23.47 12.8H5.33A5.14 5.14 0 0 0 1.56 14.37A5.14 5.14 0 0 0 0 18.13V54.4A5.14 5.14 0 0 0 1.57 58.17A5.14 5.14 0 0 0 5.33 59.73H58.67A5.14 5.14 0 0 0 62.44 58.16A5.14 5.14 0 0 0 64 54.4zM44.74 35.3L36.86 42.94L44.74 50.58L42.24 52.95L32 42.94L42.24 32.94zM19.26 45.77L27.14 38.13L19.26 30.49L21.76 28.12L32 38.13L21.76 48.13z" />
    <glyph glyph-name="caret-down"
      unicode="&#xE3F0;"
      horiz-adv-x="64" d="M62.805 48.81A3.8500000000000005 3.8500000000000005 0 0 1 59.995 50H3.995A3.8500000000000005 3.8500000000000005 0 0 1 1.185 48.81A3.93 3.93 0 0 1 1.185 43.18L29.185 15.18A3.93 3.93 0 0 1 34.815 15.18L62.815 43.18A3.93 3.93 0 0 1 62.815 48.81z" />
    <glyph glyph-name="caret-up"
      unicode="&#xE400;"
      horiz-adv-x="64" d="M62.815 20.81L34.815 48.81A3.93 3.93 0 0 1 29.185 48.81L1.185 20.81A3.93 3.93 0 0 1 1.185 15.18A3.8500000000000005 3.8500000000000005 0 0 1 4.005 14H60.005A4 4 0 0 1 62.815 20.81z" />
    <glyph glyph-name="sorting"
      unicode="&#xE40A;"
      horiz-adv-x="64" d="M53.7 43.5L34 63.2C32.9 64.3 31.2 64.3 30.1 63.3C30.1 63.3 30.1 63.3 30 63.2L10.3 43.5C9.2 42.4 9.2 40.7 10.2 39.6C10.2 39.6 10.2 39.6 10.3 39.5C10.8 39 11.5 38.7 12.3 38.7H51.7C53.3 38.7 54.5 40 54.5 41.5C54.5 42.2 54.2 42.9 53.7 43.5zM10.3 20.5L30 0.8C31.1 -0.3 32.8 -0.3 33.9 0.7C33.9 0.7 33.9 0.7 34 0.8L53.7 20.5C54.8 21.6 54.8 23.3 53.8 24.4C53.8 24.4 53.8 24.4 53.7 24.5C53.2 25 52.5 25.3 51.7 25.3H12.3C10.7 25.3 9.5 24 9.5 22.5C9.5 21.8 9.8 21.1 10.3 20.5z" />
    <glyph glyph-name="sorting-ascending"
      unicode="&#xE40B;"
      horiz-adv-x="64" d="M53.35 24.1L33.65 43.8C32.55 44.9 30.85 44.9 29.75 43.9C29.75 43.9 29.75 43.9 29.65 43.8L9.95 24.1C8.85 23 8.85 21.3 9.85 20.2C9.85 20.2 9.85 20.2 9.95 20.1C10.45 19.6 11.15 19.3 11.95 19.3H51.35C52.95 19.3 54.15 20.6 54.15 22.1C54.15 22.9 53.85 23.6 53.35 24.1z" />
    <glyph glyph-name="sorting-descending"
      unicode="&#xE40C;"
      horiz-adv-x="64" d="M10.65 39.9L30.35 20.2C31.45 19.1 33.15 19.1 34.25 20.1C34.25 20.1 34.25 20.1 34.35 20.2L54.05 39.9C55.15 41 55.15 42.7 54.15 43.8C54.15 43.8 54.15 43.8 54.05 43.9C53.55 44.4 52.85 44.7 52.05 44.7H12.65C11.05 44.7 9.85 43.4 9.85 41.9C9.85 41.2 10.15 40.5 10.65 39.9z" />
    <glyph glyph-name="search"
      unicode="&#xE410;"
      horiz-adv-x="64" d="M43.25 36.9C43.35 41.5 41.45 45.9 38.15 49.1C34.95 52.4 30.55 54.2 25.95 54.2C21.35 54.3 16.95 52.4 13.75 49.1C10.45 45.9 8.65 41.5 8.75 36.9C8.65 32.3 10.55 27.9 13.75 24.7C16.95 21.4 21.35 19.6 25.95 19.6C30.55 19.5 34.95 21.4 38.15 24.7C41.45 27.9 43.35 32.3 43.25 36.9zM62.95 4.9C62.95 2.2 60.75 0 58.05 0C56.75 0 55.45 0.5 54.55 1.5L41.35 14.6C36.85 11.4 31.45 9.8 25.95 9.8C22.35 9.8 18.75 10.5 15.45 12C8.95 14.7 3.75 19.9 1.05 26.4C-1.75 33.1 -1.75 40.7 1.05 47.4C3.75 54 8.95 59.2 15.55 61.9C22.25 64.7 29.85 64.7 36.55 61.9C43.05 59.2 48.25 54 50.95 47.4C52.35 44.1 53.05 40.5 53.05 36.9C53.05 31.4 51.45 26 48.25 21.5L61.45 8.3C62.45 7.5 62.95 6.2 62.95 4.9L62.95 4.9z" />
    <glyph glyph-name="zoom-in"
      unicode="&#xE420;"
      horiz-adv-x="64" d="M38.325 38.15V35.69A1.25 1.25 0 0 0 37.095 34.46H28.475V25.85A1.25 1.25 0 0 0 27.245 24.62H24.775A1.25 1.25 0 0 0 23.545 25.85V34.46H14.935A1.25 1.25 0 0 0 13.705 35.69V38.15A1.25 1.25 0 0 0 14.935 39.38H23.545V48A1.25 1.25 0 0 0 24.775 49.23H27.235A1.25 1.25 0 0 0 28.475 48V39.39H37.085A1.25 1.25 0 0 0 38.315 38.16zM43.245 36.92A16.59 16.59 0 0 1 38.185 49.09A16.59 16.59 0 0 1 26.015 54.15A16.59 16.59 0 0 1 13.835 49.09A16.59 16.59 0 0 1 8.785 36.92A16.59 16.59 0 0 1 13.835 24.75A16.59 16.59 0 0 1 26.005 19.69A16.59 16.59 0 0 1 38.175 24.75A16.59 16.59 0 0 1 43.245 36.92zM62.935 4.92A4.93 4.93 0 0 0 58.005 0A4.57 4.57 0 0 0 54.545 1.46L41.355 14.62A26.34 26.34 0 0 0 26.005 9.85A26.6 26.6 0 0 0 15.495 12A26.520000000000003 26.520000000000003 0 0 0 1.065 26.4A27 27 0 0 0 1.065 47.4A26.520000000000003 26.520000000000003 0 0 0 15.495 61.87A27 27 0 0 0 36.495 61.87A26.520000000000003 26.520000000000003 0 0 0 50.935 47.44A26.6 26.6 0 0 0 53.065 36.92A26.34 26.34 0 0 0 48.295 21.57L61.515 8.39A4.71 4.71 0 0 0 62.935 4.93z" />
    <glyph glyph-name="zoom-out"
      unicode="&#xE430;"
      horiz-adv-x="64" d="M38.315 38.15V35.69A1.25 1.25 0 0 0 37.085 34.46H14.935A1.25 1.25 0 0 0 13.705 35.69V38.15A1.25 1.25 0 0 0 14.935 39.38H37.085A1.25 1.25 0 0 0 38.315 38.15zM43.235 36.92A16.59 16.59 0 0 1 38.175 49.09A16.59 16.59 0 0 1 26.015 54.15A16.59 16.59 0 0 1 13.835 49.09A16.59 16.59 0 0 1 8.785 36.92A16.59 16.59 0 0 1 13.835 24.75A16.59 16.59 0 0 1 26.005 19.69A16.59 16.59 0 0 1 38.175 24.75A16.59 16.59 0 0 1 43.245 36.92zM62.935 4.92A4.93 4.93 0 0 0 58.005 0A4.57 4.57 0 0 0 54.545 1.46L41.355 14.62A26.34 26.34 0 0 0 26.005 9.85A26.6 26.6 0 0 0 15.495 12A26.520000000000003 26.520000000000003 0 0 0 1.065 26.4A27 27 0 0 0 1.065 47.4A26.520000000000003 26.520000000000003 0 0 0 15.495 61.87A27 27 0 0 0 36.495 61.87A26.520000000000003 26.520000000000003 0 0 0 50.935 47.44A26.6 26.6 0 0 0 53.065 36.92A26.34 26.34 0 0 0 48.295 21.57L61.515 8.39A4.71 4.71 0 0 0 62.935 4.93z" />
    <glyph glyph-name="zoom-reset"
      unicode="&#xE440;"
      horiz-adv-x="64" d="M61.515 8.39L48.315 21.58A26.34 26.34 0 0 1 53.085 36.93A26.6 26.6 0 0 1 50.935 47.44A26.520000000000003 26.520000000000003 0 0 1 36.525 61.87A27 27 0 0 1 15.525 61.87A26.520000000000003 26.520000000000003 0 0 1 1.065 47.44A27 27 0 0 1 1.065 26.44A26.520000000000003 26.520000000000003 0 0 1 15.495 12A26.6 26.6 0 0 1 26.015 9.87A26.34 26.34 0 0 1 41.365 14.64L54.545 1.46A4.57 4.57 0 0 1 58.005 0A5 5 0 0 1 62.935 4.92H62.935A4.71 4.71 0 0 1 61.515 8.39zM38.185 24.75A16.59 16.59 0 0 0 26.015 19.69A16.59 16.59 0 0 0 13.835 24.75A16.59 16.59 0 0 0 8.785 36.92A16.59 16.59 0 0 0 13.835 49.09A16.59 16.59 0 0 0 26.015 54.15A16.59 16.59 0 0 0 38.185 49.09A16.59 16.59 0 0 0 43.245 36.92A16.59 16.59 0 0 0 38.185 24.75zM36.615 43.61A1.67 1.67 0 0 1 36.105 44.84L33.645 47.3A1.7400000000000002 1.7400000000000002 0 0 1 31.185 47.3L25.885 42L20.575 47.31A1.7400000000000002 1.7400000000000002 0 0 1 18.115 47.31L15.655 44.85A1.7400000000000002 1.7400000000000002 0 0 1 15.655 42.39L20.935 37.07L15.625 31.76A1.7400000000000002 1.7400000000000002 0 0 1 15.625 29.3L18.085 26.84A1.7400000000000002 1.7400000000000002 0 0 1 20.545 26.84L25.855 32.15L31.165 26.84A1.7400000000000002 1.7400000000000002 0 0 1 33.625 26.84L36.085 29.3A1.7400000000000002 1.7400000000000002 0 0 1 36.085 31.76L30.775 37.07L36.085 42.38A1.67 1.67 0 0 1 36.615 43.61z" />
    <glyph glyph-name="refresh"
      unicode="&#xE441;"
      horiz-adv-x="64" d="M62.56 26.27A1.28 1.28 0 0 1 61.62 26.67H53.62A1.25 1.25 0 0 1 52.37 25.67A50.84 50.84 0 0 0 50.16 20.8A21.22 21.22 0 0 0 24.16 12.13A21.46 21.46 0 0 0 17.45 16.38L23.16 22.09A2.67 2.67 0 0 1 21.28 26.63H2.67A2.55 2.55 0 0 1 0.79 25.84A2.57 2.57 0 0 1 0 24V5.34A2.56 2.56 0 0 1 0.79 3.46A2.56 2.56 0 0 1 2.67 2.67A2.56 2.56 0 0 1 4.55 3.46L9.93 8.84A31.77 31.77 0 0 1 20.06 2.3A31.219999999999995 31.219999999999995 0 0 1 31.83 0A30.550000000000004 30.550000000000004 0 0 1 51.75 6.94A32.38 32.38 0 0 1 62.92 25A0.7100000000000001 0.7100000000000001 0 0 1 62.92 25.29H62.92A1.28 1.28 0 0 1 62.56 26.27zM64 58.67A2.56 2.56 0 0 1 63.21 60.55A2.62 2.62 0 0 1 59.46 60.55L54 55.17A32.28 32.28 0 0 1 43.83 61.69A31.430000000000003 31.430000000000003 0 0 1 32 64A30.760000000000005 30.760000000000005 0 0 1 12 57.06A32.51 32.51 0 0 1 0.75 39V38.71A1.28 1.28 0 0 1 1.15 37.77A1.28 1.28 0 0 1 2.09 37.37H10.38A1.25 1.25 0 0 1 11.63 38.37A50.84 50.84 0 0 0 13.84 43.24A21.25 21.25 0 0 0 32 53.33A20.699999999999996 20.699999999999996 0 0 0 46.54 47.62L40.79 41.87A2.67 2.67 0 0 1 42.67 37.33H61.33A2.7 2.7 0 0 1 64 40V58.67z" />
    <glyph glyph-name="redo"
      unicode="&#xE442;"
      horiz-adv-x="64" d="M62.71 58.67A2.49 2.49 0 0 1 61.09 61.13A2.4 2.4 0 0 1 58.17 60.55L52.71 55.17A32.34 32.34 0 0 1 42.56 61.69A31.570000000000004 31.570000000000004 0 0 1 18.29 61.46A31.63 31.63 0 0 1 1.29 44.46A31.599999999999998 31.599999999999998 0 0 1 1.29 19.63A31.63 31.63 0 0 1 18.29 2.63A31.129999999999995 31.129999999999995 0 0 1 30.71 0A31.77 31.77 0 0 1 44.33 3A31.279999999999998 31.279999999999998 0 0 1 55.33 11.52A1.37 1.37 0 0 1 55.64 12.46A1.16 1.16 0 0 1 55.24 13.31L49.53 19.06A1.49 1.49 0 0 1 48.53 19.44A1.29 1.29 0 0 1 47.53 18.94A21.2 21.2 0 0 0 22.43 12.33A21.110000000000003 21.110000000000003 0 0 0 11.06 23.73A21.12 21.12 0 0 0 11.06 40.27A21.110000000000003 21.110000000000003 0 0 0 22.44 51.65A20.79 20.79 0 0 0 30.71 53.34A20.699999999999996 20.699999999999996 0 0 0 45.25 47.63L39.5 41.88A2.37 2.37 0 0 1 38.92 39A2.49 2.49 0 0 1 41.38 37.33H60.04A2.7 2.7 0 0 1 62.71 40V58.67z" />
    <glyph glyph-name="undo"
      unicode="&#xE443;"
      horiz-adv-x="64" d="M64 32A31.12 31.12 0 0 1 61.46 44.42A31.63 31.63 0 0 1 44.46 61.42A31.570000000000004 31.570000000000004 0 0 1 20.19 61.65A32.34 32.34 0 0 1 10 55.17L4.54 60.54A2.37 2.37 0 0 1 1.67 61.12A2.49 2.49 0 0 1 0 58.67V40A2.55 2.55 0 0 1 0.79 38.12A2.57 2.57 0 0 1 2.67 37.33H21.33A2.49 2.49 0 0 1 23.79 39A2.37 2.37 0 0 1 23.21 41.87L17.5 47.62A20.69 20.69 0 0 0 24.17 51.85A21.15 21.15 0 0 0 32 53.33A20.79 20.79 0 0 0 40.27 51.64A21.110000000000003 21.110000000000003 0 0 0 51.65 40.27A21.12 21.12 0 0 0 51.65 23.73A21.110000000000003 21.110000000000003 0 0 0 40.27 12.35A21.16 21.16 0 0 0 15.17 19A1.3 1.3 0 0 1 14.17 19.5A1.5 1.5 0 0 1 13.17 19.12L7.46 13.33A1.23 1.23 0 0 1 7.11 12.48A1.49 1.49 0 0 1 7.38 11.54A31.279999999999998 31.279999999999998 0 0 1 18.38 3.02A31.77 31.77 0 0 1 32 0A31.129999999999995 31.129999999999995 0 0 1 44.42 2.54A31.63 31.63 0 0 1 61.42 19.54A31.129999999999995 31.129999999999995 0 0 1 64 32z" />
    <glyph glyph-name="unlock"
      unicode="&#xE444;"
      horiz-adv-x="64" d="M64 41.85V32A2.48 2.48 0 0 0 61.54 29.54H59.08A2.48 2.48 0 0 0 56.62 32V41.85A9.85 9.85 0 0 1 36.93 41.85V34.47H40.62A3.6900000000000004 3.6900000000000004 0 0 0 44.31 30.78V8.62A3.6900000000000004 3.6900000000000004 0 0 0 40.62 4.93H3.69A3.6900000000000004 3.6900000000000004 0 0 0 0 8.62V30.77A3.6900000000000004 3.6900000000000004 0 0 0 3.69 34.46H29.54V41.85A17.23 17.23 0 0 0 64 41.85z" />
    <glyph glyph-name="toggle-off"
      unicode="&#xE445;"
      horiz-adv-x="64" d="M44 52H20A20 20 0 0 1 20 12H44A20 20 0 0 1 44 52zM20 16A16 16 0 1 0 36 32A16 16 0 0 0 20 16zM44 16H31.94A19.91 19.91 0 0 1 31.94 48H44A16 16 0 0 0 44 16z" />
    <glyph glyph-name="toggle-on"
      unicode="&#xE446;"
      horiz-adv-x="64" d="M36 52H12A20 20 0 0 1 12 12H36A20 20 0 0 1 36 52zM36 16A16 16 0 1 0 52 32A16 16 0 0 0 36 16z" />
    <glyph glyph-name="announcements"
      unicode="&#xE450;"
      horiz-adv-x="64" d="M63.36 39.84A4.41 4.41 0 0 1 60.12 41.18H60.12V54.92A4.41 4.41 0 0 1 58.76 58.14A4.4 4.4 0 0 1 55.59 59.5Q39.05 45.76 23.49 45.76H6.31A5.51 5.51 0 0 1 2.31 44.08A5.51 5.51 0 0 1 0.59 40V33.13A5.51 5.51 0 0 1 2.27 29.13A5.51 5.51 0 0 1 6.27 27.45H10.64A18.55 18.55 0 0 1 9.85 23.45A29.219999999999995 29.219999999999995 0 0 1 9.77 20A19.56 19.56 0 0 1 10.31 16.39Q10.79 14.28 11.13 13.21T12.27 9.83Q13.08 7.52 13.33 6.7A8.89 8.89 0 0 1 18.05 4.7A13.379999999999999 13.379999999999999 0 0 1 24.05 5.11A6.14 6.14 0 0 1 28.05 8.11Q26.69 9.18 25.85 9.92A15.430000000000001 15.430000000000001 0 0 0 24.13 11.71A6.68 6.68 0 0 0 22.93 13.71A4.84 4.84 0 0 0 22.72 15.79A5.5 5.5 0 0 0 23.59 18A4.85 4.85 0 0 0 22.16 21.31A5.77 5.77 0 0 0 23.27 24.91A6.21 6.21 0 0 0 26.53 27.27Q40.59 26.12 55.59 13.71A4.65 4.65 0 0 1 60.17 18.29V32A4.58 4.58 0 0 1 63.41 39.82zM55.59 19.58Q41.59 30.28 28.11 31.78V41.44Q41.45 42.9 55.59 53.71z" />
    <glyph glyph-name="announcements-active"
      unicode="&#xE451;"
      horiz-adv-x="64" d="M35 59.12H35L14.24 38L7.5 36.12A8.66 8.66 0 0 1 1.5 25.62A8.29 8.29 0 0 1 10.88 19.62L14.63 6L21.13 7.88L17.38 21.12L18.88 21.5L47.75 13.87C49.75 14.25 48.13 24.87 44.75 37.24C41 50 36.87 59.87 35 59.12zM55.9017 22.7507H56.1649V22.0927H55.9017V22.7507zM54.62 60L46.87 54.75L49 51.62L56.75 56.87L54.62 60zM61.5 44.13L52.37 41.5L53.37 37.88L62.5 40.5L61.5 44.13z" />
    <glyph glyph-name="cloud-analytics"
      unicode="&#xE460;"
      horiz-adv-x="64" d="M60.31 29.45A12.24 12.24 0 0 1 53.4 33.9A15.71 15.71 0 0 1 53.84 37.71A16.75 16.75 0 0 1 51.54 46.3A17.05 17.05 0 0 1 45.3 52.54A17.15 17.15 0 0 1 26.14 51.18A16.68 16.68 0 0 1 20.08 41.81A8.38 8.38 0 0 1 14.46 43.9A8.25 8.25 0 0 1 8.46 41.38A8.24 8.24 0 0 1 5.94 35.38A8 8 0 0 1 6.25 33.1A12.5 12.5 0 0 1 1 28.42A12.47 12.47 0 0 1 2.69 12.84A12.1 12.1 0 0 1 11.56 9.15H50.44A12.59 12.59 0 0 1 63 21.72H63A12.210000000000003 12.210000000000003 0 0 1 60.31 29.45zM18.75 17.16A1.6 1.6 0 0 0 17.19 15.6H14A1.6 1.6 0 0 0 12.44 17.16V28.47A1.6 1.6 0 0 0 14 30H17.16A1.6 1.6 0 0 0 18.72 28.44zM27.87 17.16A1.6 1.6 0 0 0 26.31 15.6H23.15A1.6 1.6 0 0 0 21.59 17.16V30.56A1.6 1.6 0 0 0 23.15 32.12H26.31A1.6 1.6 0 0 0 27.87 30.56zM36.99 17.16A1.6 1.6 0 0 0 35.43 15.6H32.28A1.6 1.6 0 0 0 30.72 17.16V33.75A1.6 1.6 0 0 0 32.28 35.31H35.44A1.6 1.6 0 0 0 37 33.75zM45.87 17.16A1.6 1.6 0 0 0 44.31 15.6H41.4A1.6 1.6 0 0 0 39.84 17.16V40.06A1.53 1.53 0 0 0 40.31 41.19A1.5 1.5 0 0 0 41.4 41.66H44.31A1.5 1.5 0 0 0 45.4 41.19A1.53 1.53 0 0 0 45.87 40.06z" />
    <glyph glyph-name="code"
      unicode="&#xE470;"
      horiz-adv-x="64" d="M20.355 46.55A1.11 1.11 0 0 1 20.005 47.35L18.255 49.1A1.1 1.1 0 0 1 16.645 49.1L0.345 32.8A1.1 1.1 0 0 1 0.345 31.19L16.645 14.89A1.1 1.1 0 0 1 18.255 14.89L19.995 16.65H19.995A1.1 1.1 0 0 1 19.995 18.26L6.255 32L19.995 45.74A1.11 1.11 0 0 1 20.355 46.55zM63.645 32.81L47.345 49.1A1.1 1.1 0 0 1 45.735 49.1L43.995 47.36A1.1 1.1 0 0 1 43.995 45.75L57.735 32L43.995 18.26A1.1 1.1 0 0 1 43.995 16.65L45.745 14.9A1.1 1.1 0 0 1 47.355 14.9L63.655 31.2H63.655A1.1 1.1 0 0 1 63.655 32.81zM39.895 55.36L37.725 56A1 1 0 0 1 36.905 55.91A1.13 1.13 0 0 1 36.365 55.23L23.315 10A1.05 1.05 0 0 1 23.405 9.14A1.13 1.13 0 0 1 24.085 8.6L26.255 8A1 1 0 0 1 27.075 8.09A1.13 1.13 0 0 1 27.615 8.77L40.665 54A1.05 1.05 0 0 1 40.575 54.86A1.13 1.13 0 0 1 39.895 55.36z" />
    <glyph glyph-name="external-link"
      unicode="&#xE480;"
      horiz-adv-x="64" d="M49.13 27.43H46.85A1.1 1.1 0 0 1 45.71 26.29V14.86A5.73 5.73 0 0 0 39.99 9.14H10.28A5.5 5.5 0 0 0 6.28 10.82A5.5 5.5 0 0 0 4.6 14.82V44.57A5.5 5.5 0 0 0 6.28 48.57A5.5 5.5 0 0 0 10.28 50.25H35.42A1.1 1.1 0 0 1 36.56 51.39V53.71A1.1 1.1 0 0 1 35.42 54.85H10.28A9.91 9.91 0 0 1 3.01 51.85A9.91 9.91 0 0 1 0.01 44.58V14.86A9.91 9.91 0 0 1 3.01 7.59A9.91 9.91 0 0 1 10.28 4.59H39.99A10.3 10.3 0 0 1 50.28 14.86V26.29H50.28A1.1 1.1 0 0 1 49.14 27.43zM63.99 57.14A2.32 2.32 0 0 1 61.7 59.43H43.42A2.31 2.31 0 0 1 41.13 57.14A2.2 2.2 0 0 1 41.81 55.53L48.1 49.24L24.81 26A1.12 1.12 0 0 1 24.81 24.36L28.88 20.29A1.12 1.12 0 0 1 30.52 20.29L53.81 43.53L60.1 37.24A2.29 2.29 0 0 1 63.99 38.86V57.14z" />
    <glyph glyph-name="epx"
      unicode="&#xE490;"
      horiz-adv-x="64" d="M26.125 54.25H51.005V39.87H26.125V54.25zM17.875 64V0H60.375V64zM50.995 39.87H26.125V54.25H50.995zM10.245 63.88L3.995 63.88L3.995 59.75L10.245 59.75L10.245 52.87L3.745 52.87L3.745 49.12L10.245 49.12L10.245 41.5L3.745 41.5L3.745 37.75L10.245 37.75L10.245 30.25L3.745 30.25L3.745 26.5L10.245 26.5L10.245 18.87L3.745 18.87L3.745 15.12L10.245 15.12L10.245 7.13L3.625 7.13L3.625 0L10.245 0L11.995 0L13.995 0L13.995 64L10.245 64L10.245 63.88z" />
    <glyph glyph-name="admin"
      unicode="&#xE491;"
      horiz-adv-x="64" d="M55.79 36.8A1.5 1.5 0 0 1 56.91 37.28L63.31 43.68A1.5200000000000002 1.5200000000000002 0 0 1 63.79 44.8V54.39A1.59 1.59 0 0 1 62.79 56A1.49 1.49 0 0 1 61.07 55.65L55.07 49.65H53.26L50.99 51.87V53.72L56.91 59.67A1.53 1.53 0 0 1 57.39 61.4A1.61 1.61 0 0 1 55.79 62.4H46.19A1.48 1.48 0 0 1 45.07 61.92L38.67 55.52A1.47 1.47 0 0 1 38.19 54.4V45.48L33.79 41L26.12 48L34.53 56.41A1.55 1.55 0 0 1 34.6 58.59L34.53 58.65L31.33 61.85A1.5 1.5 0 0 1 30.21 62.33H17.39A1.5 1.5 0 0 1 16.27 61.85L0.27 45.85A1.54 1.54 0 0 1 0.21 43.68L0.27 43.61L9.87 34.01A1.53 1.53 0 0 1 12.04 33.94L12.11 34.01L17.46 39.32L25.1 32.32L19.92 27.2H10.99A1.54 1.54 0 0 1 9.87 26.72L3.47 20.32A1.54 1.54 0 0 1 2.99 19.2V9.6A1.61 1.61 0 0 1 3.99 8.13A1.49 1.49 0 0 1 5.71 8.48L11.71 14.4H13.56L15.79 12.13V10.27L9.87 4.27A1.5099999999999998 1.5099999999999998 0 0 1 9.52 2.54A1.63 1.63 0 0 1 10.99 1.54H20.59A1.5200000000000002 1.5200000000000002 0 0 1 21.71 2.02L28.11 8.42A1.5 1.5 0 0 1 28.59 9.54V18.53L34.13 24L54.7 5.12A1.56 1.56 0 0 1 55.79 4.71A1.4599999999999997 1.4599999999999997 0 0 1 56.91 5.19L63.31 11.58A1.57 1.57 0 0 1 63.79 12.74A1.53 1.53 0 0 1 63.27 13.89L42.79 32.64L46.85 36.8zM25.87 20.32A1.54 1.54 0 0 1 25.39 19.2V10.27L19.92 4.8H14.86L18.51 8.48A1.5 1.5 0 0 1 18.99 9.6V12.8A1.5 1.5 0 0 1 18.51 13.92L15.31 17.12A1.48 1.48 0 0 1 14.19 17.6H10.99A1.5 1.5 0 0 1 9.87 17.12L6.19 13.47V18.53L11.67 24H20.59A1.48 1.48 0 0 1 21.71 24.48L27.47 30.21L31.79 26.21zM59.87 12.74L55.71 8.61L18.48 42.78A1.63 1.63 0 0 1 17.39 43.2A1.54 1.54 0 0 1 16.27 42.72L10.99 37.47L3.67 44.8L18.06 59.19H29.52L31.12 57.59L22.67 49.12A1.6 1.6 0 0 1 22.67 46.81zM45.07 39.52L40.43 34.91L36.11 38.91L40.91 43.71A1.5200000000000002 1.5200000000000002 0 0 1 41.39 44.83V53.72L46.86 59.19H51.92L48.27 55.51A1.47 1.47 0 0 1 47.79 54.39V51.2A1.47 1.47 0 0 1 48.27 50.08L51.47 46.88A1.45 1.45 0 0 1 52.59 46.4H55.79A1.4599999999999997 1.4599999999999997 0 0 1 56.91 46.88L60.59 50.52V45.47L55.11 40H46.19A1.5200000000000002 1.5200000000000002 0 0 1 45.07 39.52z" />
    <glyph glyph-name="data-cleaning"
      unicode="&#xE492;"
      horiz-adv-x="64" d="M9.21 45.58H23A1.54 1.54 0 0 1 24.54 47.12V60.93H46V30.23H49.07V62.47A1.53 1.53 0 0 1 47.58 64H23A1.43 1.43 0 0 1 22 63.54L6.6 48.19A1.4200000000000002 1.4200000000000002 0 0 1 6.14 47.12V10.28A1.54 1.54 0 0 1 7.67 8.75H27.67V11.82H9.21zM21.49 58.75V48.65H11.39zM15.35 39.44H36.84V36.37H15.35V39.44zM15.35 30.23H36.84V27.16H15.35V30.23zM52.64 7.4A12.27 12.27 0 1 1 50.46 5.22L55.71 0L57.86 2.15zM43 5.68A9.21 9.21 0 1 0 52.21 14.89A9.2 9.2 0 0 0 43 5.68z" />
    <glyph glyph-name="ert-global-account"
      unicode="&#xE493;"
      horiz-adv-x="64" d="M32.035 64A29.55 29.55 0 0 1 26.325 63.45H26.165L25.945 63.23A32.06 32.06 0 0 1 25.945 0.33L26.165 0.1L26.325 0.26A31.21 31.21 0 0 1 32.035 -0.12A32.06 32.06 0 0 1 32.035 64zM22.415 59.06A42.52 42.52 0 0 1 16.485 46.24H7.095A28.82 28.82 0 0 0 22.415 59.06zM5.355 43.16H15.555A53.70000000000001 53.70000000000001 0 0 1 14.465 33.54H3.175A27.729999999999997 27.729999999999997 0 0 0 5.355 43.16zM3.175 30.34H14.465A53.49 53.49 0 0 1 15.555 20.72H5.455A27.75 27.75 0 0 0 3.175 30.34zM7.095 17.51L7.255 17.38H16.325A42.52 42.52 0 0 1 22.255 4.56A28.859999999999996 28.859999999999996 0 0 0 7.095 17.51zM30.435 3.08A24.3 24.3 0 0 0 27.485 3.47V3.37A36.54 36.54 0 0 0 19.725 17.51H30.435zM30.435 20.72H18.855A50.21000000000001 50.21000000000001 0 0 0 17.675 30.34H30.435zM30.435 33.54H17.605A49.440000000000005 49.440000000000005 0 0 0 18.795 43.16H30.435zM30.435 46.37H19.725A36.48 36.48 0 0 0 27.485 60.37A22.449999999999996 22.449999999999996 0 0 0 30.435 60.75zM60.795 33.54H48.005A54.61999999999999 54.61999999999999 0 0 1 46.915 43.16H58.615A27.5 27.5 0 0 0 60.795 33.54zM56.975 46.37H46.145A42.57 42.57 0 0 1 39.725 59.74A29.050000000000004 29.050000000000004 0 0 0 56.975 46.37zM33.635 60.79H34.725A36.27 36.27 0 0 0 42.725 46.49H33.635zM33.635 43.16H43.635A49.440000000000005 49.440000000000005 0 0 0 44.825 33.54H33.635zM33.635 30.34H44.855A50.21000000000001 50.21000000000001 0 0 0 43.675 20.72H33.675zM33.635 3.08V17.51H42.745A36.27 36.27 0 0 0 34.745 3.08zM39.725 4.14A42.47 42.47 0 0 1 46.145 17.51H56.975A29.050000000000004 29.050000000000004 0 0 0 39.725 4.14zM46.915 20.72A53.56 53.56 0 0 1 48.095 30.34H60.825A27.449999999999996 27.449999999999996 0 0 0 58.645 20.72z" />
    <glyph glyph-name="ert-learn"
      unicode="&#xE494;"
      horiz-adv-x="64" d="M60.8 12.8H52.54L33.6 9.6H30.66L11.2 12.8H3.2V14.4H0V11.2A1.6 1.6 0 0 1 1.6 9.6H10.94L30.4 6.4H33.86L52.8 9.6H62.4A1.6 1.6 0 0 1 64 11.2V14.4H60.8zM62.4 54.4H46.4A0.81 0.81 0 0 1 46.02 54.4L33.41 51.2H30.59L25.59 52.42V56A1.6 1.6 0 0 1 24 57.6H11.2A1.6 1.6 0 0 1 9.6 56V54.4H1.6A1.6 1.6 0 0 1 0 52.8V17.6A1.6 1.6 0 0 1 1.6 16H14.08L30.4 12.8H33.92L49.6 16H62.4A1.6 1.6 0 0 1 64 17.6V52.8A1.6 1.6 0 0 1 62.4 54.4zM12.8 54.4H22.4V34.27L18.72 37.92A1.53 1.53 0 0 1 16.55 38L16.48 37.93L12.8 34.27zM30.4 16L14.4 19.2H3.2V51.2H9.6V30.4A1.58 1.58 0 0 1 10.6 28.93A1.5 1.5 0 0 1 12.33 29.28L17.61 34.53L22.89 29.28A1.5 1.5 0 0 1 24 28.8A1.26 1.26 0 0 1 24.61 28.8A1.6 1.6 0 0 1 25.61 30.4V49.12L30 48H30.38zM60.8 19.2H49.28L33.6 16V48A0.81 0.81 0 0 1 34 48L46.61 51.2H60.8zM45.89 48L36.29 44.8L37.29 41.6L46.64 44.8H57.6V48H46.4A1.4599999999999997 1.4599999999999997 0 0 1 45.89 48zM45.89 38.4L36.29 35.2L37.29 32L46.64 35.2H57.6V38.4H46.4A1.4599999999999997 1.4599999999999997 0 0 1 45.89 38.4zM45.89 28.8L36.29 25.6L37.29 22.4L46.64 25.6H57.6V28.8H46.4A1.4599999999999997 1.4599999999999997 0 0 1 45.89 28.8z" />
    <glyph glyph-name="expert"
      unicode="&#xE495;"
      horiz-adv-x="64" d="M48.94 15.06H60.23V3.77H48.94V15.06zM26.35 15.06H37.64V3.77H26.35V15.06zM3.76 9.41C3.76 6.289591163456 6.289591163456 3.76 9.41 3.76C12.530408836544 3.76 15.06 6.289591163456 15.06 9.41C15.06 12.530408836544 12.530408836544 15.06 9.41 15.06C6.289591163456 15.06 3.76 12.530408836544 3.76 9.41zM26.35 32C26.35 28.879591163456 28.879591163456 26.35 32 26.35C35.120408836544 26.35 37.65 28.879591163456 37.65 32C37.65 35.120408836544 35.120408836544 37.65 32 37.65C28.879591163456 37.65 26.35 35.120408836544 26.35 32zM48.94 37.65H60.23V26.36H48.94V37.65zM3.76 60.24H15.05V48.95H3.76V60.24zM48.94 60.24H60.23V48.95H48.94V60.24zM0 45.18H18.82V64H0zM3.76 60.24H15.06V48.94H3.76zM45.18 64V45.18H64V64zM60.24 48.94H48.94V60.24H60.24zM45.18 22.59H64V41.41H45.18zM48.94 37.65H60.24V26.35H48.94zM22.59 0H41.41V18.82H22.59zM26.35 15.06H37.65V3.76H26.35zM45.18 0H64V18.82H45.18zM48.94 15.06H60.24V3.76H48.94zM9.41 18.82A9.41 9.41 0 1 1 18.82 9.41A9.41 9.41 0 0 1 9.41 18.82zM9.41 3.76A5.650000000000001 5.650000000000001 0 1 0 15.06 9.41A5.650000000000001 5.650000000000001 0 0 0 9.41 3.76zM32 41.41A9.41 9.41 0 1 1 41.41 32A9.41 9.41 0 0 1 32 41.41zM32 26.35A5.650000000000001 5.650000000000001 0 1 0 37.65 32A5.650000000000001 5.650000000000001 0 0 0 32 26.35z" />
    <glyph glyph-name="vacation-mode"
      unicode="&#xE496;"
      horiz-adv-x="64" d="M63.69 56.07Q65.16 60.46 63.15 62.83H63.15Q60.78 64.83 56.4 63.37A19.93 19.93 0 0 1 48.54 58.44L41.24 51.14L10.86 58.41A1.33 1.33 0 0 1 9.49 58L3.65 52.19A1.38 1.38 0 0 1 3.24 51A1.5099999999999998 1.5099999999999998 0 0 1 4.01 49.91L27.21 37.13L15.38 25.3L6.52 27.72A0.9100000000000001 0.9100000000000001 0 0 1 6.16 27.77A1.39 1.39 0 0 1 5.16 27.35L0.73 22.92A1.54 1.54 0 0 1 0.31 21.78A1.41 1.41 0 0 1 0.91 20.73L12.41 12.1L21.04 0.6A1.68 1.68 0 0 1 22.14 0H22.23A1.39 1.39 0 0 1 23.23 0.42L27.62 4.8A1.41 1.41 0 0 1 27.98 6.22L25.61 15.07L37.44 26.9L50.18 3.7A1.26 1.26 0 0 1 51.18 2.97A1 1 0 0 1 51.5 2.97A1.28 1.28 0 0 1 52.31 3.2L58.16 7.58A1.39 1.39 0 0 1 58.71 9.09L51.41 40.87L58.76 48.22A19.9 19.9 0 0 1 63.69 56.07z" />
    <glyph glyph-name="patient-profile"
      unicode="&#xE497;"
      horiz-adv-x="64" d="M30.4 64A32 32 0 1 1 62.4 32A32.09 32.09 0 0 1 30.4 64zM30.4 3.2A28.700000000000003 28.700000000000003 0 0 0 5.12 18.2C5.4 19.52 7.4 24 14.4 24C15.04 24 16 23.36 17.28 22.4C19.84 20.48 23.68 17.6 30.4 17.6S40.96 20.48 43.52 22.4C44.8 23.4 45.76 24 46.4 24C53.4 24 55.4 19.52 55.68 18.24A28.700000000000003 28.700000000000003 0 0 0 30.4 3.2zM46.4 27.2C44.8 27.2 43.2 26.2 41.6 24.96C39.04 23 35.84 20.8 30.4 20.8S21.76 23 19.2 25C17.6 26.28 16 27.24 14.4 27.24C8.64 27.24 5.12 24.68 3.52 22.12A26.08 26.08 0 0 0 1.6 32A28.799999999999997 28.799999999999997 0 0 0 59.2 32A26.08 26.08 0 0 0 57.28 22.08C55.4 24.64 52.16 27.2 46.4 27.2zM30.4 57.6A15.84 15.84 0 0 1 14.4 41.6A16 16 0 0 1 46.4 41.6A15.84 15.84 0 0 1 30.4 57.6zM30.4 28.8A12.8 12.8 0 1 0 43.2 41.6A12.840000000000002 12.840000000000002 0 0 0 30.4 28.8z" />
    <glyph glyph-name="spiro-support"
      unicode="&#xE498;"
      horiz-adv-x="64" d="M57.495 48.69A13 13 0 0 1 42.125 47.56L44.375 44.56A9.61 9.61 0 0 0 55.625 45.31A9.87 9.87 0 0 0 60.125 35.19C59.375 30.69 56.005 28.81 53.005 26.94C50.005 25.44 47.005 23.56 47.005 19.81V14.19H50.755V19.81C50.755 21.31 52.255 22.06 54.875 23.56C58.255 25.44 62.755 28.06 63.875 34.44A13.37 13.37 0 0 1 57.495 48.69zM45.115 6.69C45.115 4.6189321881345 46.7939321881345 2.94 48.865 2.94C50.9360678118655 2.94 52.615 4.6189321881345 52.615 6.69C52.615 8.7610678118655 50.9360678118655 10.44 48.865 10.44C46.7939321881345 10.44 45.115 8.7610678118655 45.115 6.69zM37.625 39.31V61.06H33.875V39.31L30.125 35.56V46.06A1.77 1.77 0 0 1 28.245 47.94H20.745C12.125 47.94 0.125 35.94 0.125 27.31V4.82A2 2 0 0 1 0.875 3.32A1.38 1.38 0 0 1 2.005 2.94H2.745L19.245 8.57C22.995 9.32 30.125 12.69 30.125 19.81V30.31L35.745 35.94L43.615 27.69L46.245 30.31zM26.375 19.81C26.375 13.81 18.875 12.32 18.125 12.32L3.875 7.44V14.19H9.495V17.94H3.875V22.06H13.245V25.81H3.875V27.31C3.875 33.69 14.375 44.19 20.745 44.19H26.375z" />
  </font>
</defs>
</svg>
